<?xml version="1.0" encoding="UTF-8"?>
<svg id="Layer_2" data-name="Layer 2" xmlns="http://www.w3.org/2000/svg" viewBox="0 0 352.89 327.75">
  <defs>
    <style>
      .cls-1, .cls-2 {
        fill: #fff;
      }

      .cls-2 {
        stroke: #27debf;
        stroke-miterlimit: 10;
      }

      .cls-3 {
        fill: #37474f;
      }

      .cls-4 {
        fill: #f5f5f5;
      }

      .cls-5 {
        fill: #404466;
      }

      .cls-6 {
        fill: #e0e0e0;
      }

      .cls-7 {
        fill: #f7a27c;
      }

      .cls-8 {
        fill: #27debf;
      }

      .cls-9 {
        fill: #e56e33;
      }

      .cls-10 {
        fill: #662a28;
      }

      .cls-11 {
        fill: #383c57;
      }

      .cls-12 {
        fill: #f4c6a6;
      }

      .cls-13 {
        fill: #d1d9e5;
      }

      .cls-14 {
        fill: #9eb7db;
      }

      .cls-15 {
        fill: #2a2c5e;
      }

      .cls-16 {
        fill: #1d213d;
      }
    </style>
  </defs>
  <g id="Floor">
    <path class="cls-13" d="M51.68,303.12c68.91,32.84,180.63,32.84,249.53,0,68.91-32.84,68.91-86.09,0-118.93-68.91-32.84-180.63-32.84-249.53,0-68.91,32.84-68.91,86.09,0,118.93Z"/>
  </g>
  <g id="Shadow">
    <path class="cls-14" d="M284.73,275.64c8.97,4.28,23.52,4.28,32.5,0,8.97-4.28,8.97-11.21,0-15.49-8.97-4.28-23.52-4.28-32.5,0-8.97,4.28-8.97,11.21,0,15.49Z"/>
  </g>
  <g id="Plants">
    <g>
      <g>
        <g>
          <g>
            <path class="cls-8" d="M46.4,269.47l8.12-4.69s6.7-4.93,10.02-14.07c2.51-6.92,2.17-12.18,.36-14.82-2.22-3.25-7.95-2.68-8.17,4.17-.45,13.48-4.38,22.81-10.34,29.42Z"/>
            <path class="cls-9" d="M46.4,269.47l8.12-4.69s6.7-4.93,10.02-14.07c2.51-6.92,2.17-12.18,.36-14.82-2.22-3.25-7.95-2.68-8.17,4.17-.45,13.48-4.38,22.81-10.34,29.42Z"/>
          </g>
          <path class="cls-1" d="M46.4,269.97c-.16,0-.31-.08-.41-.22-.16-.23-.1-.54,.13-.7,18.8-13.01,15.16-31.13,15.12-31.31-.06-.27,.11-.54,.38-.59,.27-.06,.54,.11,.59,.38,.04,.19,3.84,18.94-15.52,32.34-.09,.06-.19,.09-.28,.09Z"/>
        </g>
        <g>
          <path class="cls-7" d="M30.15,278.85s-2.83-2.3-2.14-5.42c.68-3.12,2.51-5.36-.63-9.38-3.14-4.02-3.95-9.38-.26-12.29,2.85-2.25,7.3,.94,8.91-5.02,1.17-4.34,.77-13.95,6.31-17.15,5.54-3.2,8.97,1.62,8.12,8.13-.76,5.83-1.83,11.45-1.01,12.97,1.62,2.99,4.39,2.59,4.26,8.07-.12,5.1-4.94,9.32-4.94,9.32l-18.63,10.75Z"/>
          <path class="cls-1" d="M39.44,273.98c-.25,0-.47-.19-.5-.44-1.43-11.85,1.98-32.31,4.8-38.39,.12-.25,.41-.36,.66-.24,.25,.12,.36,.41,.24,.66-2.77,5.98-6.08,26.52-4.71,37.85,.03,.27-.16,.52-.44,.56-.02,0-.04,0-.06,0Z"/>
          <path class="cls-1" d="M39.17,264.76c-.07,0-.15-.02-.22-.05-3.47-1.7-5.67-7.72-5.76-7.98-.09-.26,.04-.55,.3-.64,.26-.09,.55,.04,.64,.3,.02,.06,2.15,5.9,5.26,7.42,.25,.12,.35,.42,.23,.67-.09,.18-.26,.28-.45,.28Z"/>
          <path class="cls-1" d="M39.12,268.75c-.2,0-.39-.12-.46-.31-.1-.26,.02-.55,.28-.65,5.84-2.34,9.48-9.3,9.52-9.37,.13-.25,.43-.34,.67-.21,.25,.13,.34,.43,.22,.67-.15,.3-3.85,7.36-10.03,9.84-.06,.02-.12,.04-.19,.04Z"/>
        </g>
      </g>
      <g>
        <g>
          <path class="cls-7" d="M243.25,214.96s-4.37-7.07-4.79-14.77c-.42-7.7,1.27-10.89,3.59-11.81,2.32-.92,2.49,1.91,3.69,3.58,1.2,1.67,3.62,.72,4.51-4.49,.89-5.21,4.18-14.03,10.97-15.71,7.5-1.86,3.48,6.94,1.59,10.37-1.88,3.43-3.35,8.11-2.11,9.38,1.24,1.27,3.17-1.08,5.01,1.1,2.23,2.63-4.7,12.09-8.68,14.39l-13.79,7.96Z"/>
          <path class="cls-1" d="M249.24,211.98s-.02,0-.03,0c-.28-.01-.49-.25-.47-.53,1.1-20.48,11.09-34.66,11.2-34.8,.16-.23,.47-.28,.7-.12,.22,.16,.28,.47,.12,.7-.1,.14-9.92,14.1-11.01,34.27-.01,.27-.23,.47-.5,.47Z"/>
          <path class="cls-1" d="M249.81,206.08c-.08,0-.17-.02-.24-.06-2.8-1.55-4.35-6.15-4.42-6.34-.09-.26,.05-.54,.32-.63,.26-.09,.55,.06,.63,.32,.01,.04,1.49,4.42,3.95,5.78,.24,.13,.33,.44,.2,.68-.09,.17-.26,.26-.44,.26Z"/>
          <path class="cls-1" d="M250.3,203.05c-.22,0-.43-.15-.48-.38-.07-.27,.09-.54,.36-.61,7.22-1.83,9.72-5.61,9.74-5.65,.15-.23,.46-.3,.69-.15,.23,.15,.3,.46,.15,.69-.11,.17-2.7,4.15-10.34,6.08-.04,.01-.08,.02-.12,.02Z"/>
        </g>
        <g>
          <g>
            <path class="cls-8" d="M134.47,199.41s-9.59-2.34-10.09-20.29c-.54-19.38,2.35-41.99-8.96-43.83-11.31-1.84-17.66,12.03-17.51,28.14,.13,14.15,5.83,44.85,36.56,50.87v-14.89Z"/>
            <path class="cls-9" d="M134.47,199.41s-9.59-2.34-10.09-20.29c-.54-19.38,2.35-41.99-8.96-43.83-11.31-1.84-17.66,12.03-17.51,28.14,.13,14.15,5.83,44.85,36.56,50.87v-14.89Z"/>
          </g>
          <path class="cls-1" d="M134.47,212.45s-.06,0-.09,0c-6.92-1.26-12.54-5.06-16.73-11.31-12.42-18.53-8.51-53.13-7.22-59.17,.06-.27,.32-.44,.59-.39,.27,.06,.44,.32,.39,.59-1.27,5.98-5.15,40.16,7.08,58.41,4.03,6.01,9.44,9.67,16.08,10.88,.27,.05,.45,.31,.4,.58-.04,.24-.25,.41-.49,.41Z"/>
          <g>
            <path class="cls-7" d="M134.47,258.54c-9.91,1.34-26.02,1.32-35.29-6-9.28-7.32-7.35-13.62-3.78-16.25,3.57-2.63,6.67-5.64,.53-11.47-6.14-5.84-16.01-15.22-19.2-29.29-3.19-14.07-1.62-22.87,4.66-25.8,6.09-2.84,7.7,1.67,11.43,11,3.73,9.32,12.12,1.33,19.3,4.24,7.18,2.91,6.89,8.67,7.35,13.62,.45,4.95,2.82,6.32,6.88,6.32s8.12,2.34,8.12,7.04v46.59Z"/>
            <path class="cls-1" d="M134.47,242.21s-.09,0-.13-.02c-.43-.12-10.68-3.1-25.61-16.81-15.9-14.6-23.4-36.5-23.48-36.72-.09-.26,.05-.55,.31-.63,.26-.09,.55,.05,.63,.31,.07,.22,7.5,21.88,23.21,36.3,14.72,13.53,25.1,16.56,25.2,16.59,.27,.08,.42,.35,.35,.62-.06,.22-.26,.36-.48,.36Z"/>
            <path class="cls-1" d="M112.88,228.87c-.2,0-.39-.12-.47-.32-3.21-8.25-3.94-25.88-3.97-26.62-.01-.28,.2-.51,.48-.52,.26,0,.51,.2,.52,.48,0,.18,.75,18.21,3.9,26.3,.1,.26-.03,.55-.28,.65-.06,.02-.12,.03-.18,.03Z"/>
            <path class="cls-1" d="M112.79,240.73c-1.55,0-2.63-.12-2.76-.14-.27-.03-.47-.28-.44-.56,.03-.27,.28-.48,.56-.44,.09,0,9.4,1.06,13.67-3.3,.19-.2,.51-.2,.71,0,.2,.19,.2,.51,0,.71-3.13,3.19-8.49,3.73-11.74,3.73Z"/>
          </g>
        </g>
      </g>
    </g>
  </g>
  <g id="Device">
    <g id="Gear">
      <g>
        <g>
          <path class="cls-14" d="M105.59,51.37l-1.07-6.23-5.56,3.66c-.56-1.07-1.27-1.92-2.12-2.57l2.66-7.2-4.96-1.11-3.66,6.98c-1.21,.19-2.49,.6-3.81,1.24l-1.59-5.26-5.94,4.67,.39,6.2c-1.2,1.34-2.3,2.8-3.28,4.34l-4.9-.24-3.44,7.71,4.21,1.8c-.44,1.66-.73,3.3-.83,4.89l-5.35,4.92,1.07,6.23,5.56-3.66c.56,1.07,1.27,1.92,2.12,2.57l-2.66,7.2,4.96,1.11,5.24-5.11c1.21-.19,.92-2.47,2.24-3.11l1.58,5.26,5.94-4.67-.15-2.44c1.2-1.34,5.74-4.29,6.72-5.82l1.23-2.03,3.44-7.71-1.6-2.9-1.78-3.78,5.35-4.92Zm-18.13,20.55c-4.55,3.58-5.94,4.36-6.77-.42s1.84-12.08,6.39-15.66c4.55-3.58,6.3-3.85,7.13,.94s-2.2,11.56-6.75,15.14Z"/>
          <polygon class="cls-13" points="94.55 37.92 101.03 41.66 97.37 48.63 90.88 44.9 94.55 37.92"/>
          <polygon class="cls-13" points="111 48.87 105.44 52.54 98.96 48.8 104.52 45.13 111 48.87"/>
          <polygon class="cls-6" points="110.11 66.71 105.9 64.91 99.42 61.17 103.63 62.97 110.11 66.71"/>
          <polygon class="cls-14" points="72.44 87.49 78.92 91.23 81.58 84.03 75.1 80.29 72.44 87.49"/>
          <polygon class="cls-14" points="92.94 89.38 86.45 85.64 84.87 80.38 91.35 84.12 92.94 89.38"/>
          <path class="cls-13" d="M112.08,55.11l-1.07-6.23-5.56,3.66c-.56-1.07-1.27-1.92-2.12-2.57l2.66-7.2-4.96-1.11-3.66,6.98c-1.21,.19-2.49,.6-3.81,1.24l-1.58-5.26-5.94,4.67,.39,6.2c-1.2,1.34-2.3,2.8-3.28,4.34l-4.9-.24-3.44,7.71,4.21,1.8c-.44,1.66-.73,3.3-.83,4.89l-5.35,4.92,1.07,6.23,5.56-3.66c.56,1.07,1.27,1.92,2.12,2.57l-2.66,7.2,4.96,1.11,3.66-6.98c1.21-.19,2.49-.6,3.81-1.24l1.58,5.26,5.94-4.67-.39-6.2c1.2-1.34,2.3-2.8,3.28-4.34l4.9,.24,3.44-7.71-4.21-1.8c.45-1.66,.73-3.3,.83-4.89l5.35-4.92Zm-18.13,20.55c-4.55,3.58-8.91,2.61-9.74-2.18s2.2-11.56,6.75-15.14c4.55-3.58,8.91-2.61,9.74,2.18,.82,4.78-2.2,11.56-6.75,15.14Z"/>
          <polygon class="cls-13" points="91.97 44.62 85.49 40.88 79.55 45.54 86.03 49.28 91.97 44.62"/>
          <polygon class="cls-14" points="79.55 45.54 79.94 51.74 86.42 55.48 86.03 49.28 79.55 45.54"/>
          <polygon class="cls-4" points="83.14 59.82 76.66 56.08 71.75 55.84 78.24 59.58 83.14 59.82"/>
          <polygon class="cls-14" points="71.75 55.84 68.31 63.55 74.8 67.29 78.24 59.58 71.75 55.84"/>
          <polygon class="cls-13" points="78.18 73.97 71.69 70.23 66.35 75.15 72.83 78.89 78.18 73.97"/>
          <polygon class="cls-14" points="73.9 85.12 67.42 81.38 66.35 75.15 72.83 78.89 73.9 85.12"/>
          <polygon class="cls-13" points="101.03 41.66 94.55 37.92 99.5 39.03 105.99 42.77 101.03 41.66"/>
        </g>
        <g>
          <path class="cls-14" d="M76.54,23.09V13.78l-7.41,3.34c-.45-1.72-1.13-3.19-2-4.41l4.67-9.42-5.7-3.29-5.82,8.75c-1.49-.15-3.11,0-4.82,.47l-.81-8.09-8.06,4.66-.81,9.03c-1.71,1.5-3.33,3.22-4.82,5.09l-5.82-2.03-5.7,9.88,4.67,4.02c-.87,2.23-1.56,4.49-2,6.72l-7.41,5.22v9.31l7.41-3.34c.45,1.72,1.13,3.19,2,4.41l-4.67,9.41,5.7,3.29,5.82-8.75c1.49,.15,3.11,0,4.82-.47l.81,8.09,8.06-4.66,.81-9.03c2.4-.8,4.97-2.66,6.47-4.53l4.17,1.47,5.7-9.88-3.5-3.02c.87-2.23,.97-5.78,.83-7.73l7.41-5.22Zm-25.93,23.25c-6.19,3.57-10.03,1.04-10.03-6.11s5.11-15.9,11.3-19.47c6.19-3.57,9.93-.97,9.93,6.17s-5.02,15.83-11.2,19.4Z"/>
          <polygon class="cls-13" points="72.58 3.74 66.09 0 60.27 8.75 66.76 12.49 72.58 3.74"/>
          <polygon class="cls-13" points="83.02 17.52 76.54 13.78 69.13 17.12 75.61 20.86 83.02 17.52"/>
          <polygon class="cls-14" points="53.06 69.41 46.58 65.67 45.76 57.59 52.25 61.33 53.06 69.41"/>
          <polygon class="cls-14" points="29.42 63.52 35.91 67.26 40.57 57.84 34.09 54.1 29.42 63.52"/>
          <path class="cls-13" d="M83.02,26.83v-9.31l-7.41,3.34c-.45-1.72-1.13-3.19-2-4.41l4.67-9.42-5.7-3.29-5.82,8.75c-1.49-.15-3.11,0-4.82,.47l-.81-8.09-8.06,4.66-.81,9.03c-1.71,1.5-3.33,3.22-4.82,5.09l-5.82-2.03-5.7,9.88,4.67,4.02c-.87,2.23-1.55,4.49-2,6.72l-7.41,5.22v9.31l7.41-3.34c.45,1.72,1.13,3.19,2,4.41l-4.67,9.41,5.7,3.29,5.82-8.75c1.49,.15,3.11,0,4.82-.47l.81,8.09,8.06-4.66,.81-9.03c1.71-1.5,3.33-3.22,4.82-5.09l5.82,2.03,5.7-9.88-4.67-4.02c.87-2.23,1.56-4.49,2-6.72l7.41-5.22Zm-25.93,23.25c-6.19,3.57-11.2,.68-11.2-6.47s5.02-15.83,11.2-19.4c6.19-3.57,11.2-.68,11.2,6.47s-5.02,15.83-11.2,19.4Z"/>
          <polygon class="cls-13" points="40.94 19.91 47.43 23.65 41.61 21.62 35.12 17.88 40.94 19.91"/>
          <rect class="cls-13" x="29.81" y="20.95" width="11.41" height="7.49" transform="translate(-3.62 43.12) rotate(-60.02)"/>
          <polygon class="cls-6" points="29.42 27.76 35.91 31.5 40.57 35.52 34.09 31.78 29.42 27.76"/>
          <polygon class="cls-13" points="32.09 38.5 38.57 42.24 31.16 47.46 24.68 43.72 32.09 38.5"/>
          <polygon class="cls-14" points="24.68 43.72 31.16 47.46 31.16 56.77 24.68 53.03 24.68 43.72"/>
          <polygon class="cls-13" points="61.13 4.87 54.64 1.13 46.58 5.79 53.06 9.53 61.13 4.87"/>
        </g>
      </g>
    </g>
    <g>
      <path class="cls-6" d="M144.32,271.93l94.02-54.29c.96-.55,.96-1.45,0-2l-8.7-5.03c-.96-.55-2.51-.55-3.46,0l-94.05,54.29c-.96,.55-.96,1.45,0,2l8.72,5.04c.96,.55,2.51,.55,3.46,0Z"/>
      <path class="cls-5" d="M235.75,8.07l-84.77,48.94c-2.39,1.38-4.33,4.74-4.33,7.5v201.07c0,2.76,1.94,3.88,4.33,2.5l84.77-48.94c2.39-1.38,4.33-4.74,4.33-7.5V10.57c0-2.76-1.94-3.88-4.33-2.5Z"/>
      <path class="cls-11" d="M150.98,57.01L235.75,8.07c2.14-1.23,3.91-.47,4.26,1.68-.33-2.58-2.1-5.44-4.26-6.68l-3.53-2.04c-2.39-1.38-6.27-1.38-8.66,0l-84.77,48.94c-1.2,.69-2.28,1.88-3.06,3.23l12.19,7.04c.78-1.36,1.87-2.54,3.06-3.23Z"/>
      <path class="cls-16" d="M134.47,258.54c0,2.76,1.94,6.12,4.33,7.5l3.53,2.04c2.16,1.25,5.53,1.36,7.92,.35-2.04,.77-3.6-.38-3.6-2.85V64.51c0-1.38,.48-2.91,1.27-4.27l-12.19-7.04c-.78,1.36-1.27,2.89-1.27,4.27v201.07Z"/>
      <path class="cls-1" d="M153.31,83.81l80.11-46.25c1.44-.83,2.6-.16,2.6,1.5V187.84c0,1.66-1.16,3.67-2.6,4.5l-80.11,46.25c-1.43,.83-2.6,.16-2.6-1.5V88.31c0-1.66,1.16-3.67,2.6-4.5Z"/>
      <path class="cls-16" d="M193.37,40.17c-.84,.49-1.52,1.67-1.52,2.64s.68,1.37,1.52,.88c.84-.49,1.52-1.67,1.52-2.64s-.68-1.37-1.52-.88Z"/>
      <path class="cls-16" d="M193.37,222.61c-3.32,1.92-6.01,6.58-6.01,10.42s2.69,5.39,6.01,3.47c3.32-1.92,6.01-6.58,6.01-10.42s-2.69-5.39-6.01-3.47Z"/>
      <g>
        <path class="cls-16" d="M178.98,55.65c-1.68,.97-3.05,3.33-3.05,5.28s1.36,2.73,3.05,1.76c1.68-.97,3.05-3.33,3.05-5.28s-1.36-2.73-3.05-1.76Z"/>
        <path class="cls-16" d="M186.43,54.99c0,1.29,.97,1.79,2.17,1.1l20.04-11.57c1.2-.69,2.17-2.3,2.17-3.6,0-1.3-.97-1.79-2.17-1.1l-20.04,11.57c-1.2,.69-2.17,2.3-2.17,3.6Z"/>
      </g>
      <path class="cls-15" d="M141.21,90.25c1.35,.78,2.44,2.67,2.44,4.22s-1.09,2.18-2.44,1.41c-1.35-.78-2.44-2.67-2.44-4.22s1.09-2.18,2.44-1.41Z"/>
      <path class="cls-15" d="M141.21,109.02c1.35,.78,2.44,2.67,2.44,4.22s-1.09,2.18-2.44,1.41c-1.35-.78-2.44-2.67-2.44-4.22s1.09-2.18,2.44-1.41Z"/>
      <path class="cls-11" d="M140.46,90.62c1.35,.78,2.44,2.67,2.44,4.22s-1.09,2.18-2.44,1.41c-1.35-.78-2.44-2.67-2.44-4.22s1.09-2.18,2.44-1.41Z"/>
      <path class="cls-11" d="M140.46,109.4c1.35,.78,2.44,2.67,2.44,4.22s-1.09,2.18-2.44,1.41c-1.35-.78-2.44-2.67-2.44-4.22s1.09-2.18,2.44-1.41Z"/>
      <g>
        <path class="cls-2" d="M252.27,43.76c0-1.66-1.16-2.33-2.6-1.5l-9.59,5.54-70.52,40.71c-1.44,.83-2.6,2.84-2.6,4.5V241.8c0,1.66,1.16,2.33,2.6,1.5l70.54-40.73,9.56-5.52c1.43-.83,2.6-2.84,2.6-4.5V43.76Z"/>
        <path class="cls-9" d="M168.4,244.15c-.33,0-.65-.08-.93-.24-.65-.38-1.01-1.13-1.01-2.12V93.01c0-1.84,1.25-4.01,2.85-4.93l70.52-40.71,.5,.87-70.52,40.71c-1.27,.73-2.35,2.6-2.35,4.07V241.8c0,.61,.19,1.06,.51,1.25,.33,.19,.81,.12,1.34-.18l70.54-40.73,.5,.87-70.54,40.73c-.49,.28-.97,.42-1.41,.42Z"/>
        <path class="cls-9" d="M240.36,203l-.5-.87,9.56-5.52c1.27-.74,2.35-2.6,2.35-4.07V43.76c0-.61-.19-1.06-.51-1.25-.32-.19-.81-.12-1.34,.18l-9.59,5.54-.5-.87,9.59-5.54c.85-.49,1.68-.56,2.34-.18,.65,.38,1.01,1.13,1.01,2.11V192.55c0,1.84-1.25,4.01-2.85,4.93l-9.56,5.52Z"/>
      </g>
      <g>
        <path class="cls-9" d="M209.62,78.34c8.97-5.18,16.25-.98,16.25,9.38s-7.27,22.96-16.25,28.14c-8.97,5.18-16.25,.98-16.25-9.38s7.27-22.96,16.25-28.14Z"/>
        <path class="cls-8" d="M209.62,86.49c2.91-1.68,5.27-.32,5.27,3.04s-2.36,7.45-5.27,9.13c-2.91,1.68-5.27,.32-5.27-3.04s2.36-7.45,5.27-9.13Z"/>
      </g>
      <path class="cls-8" d="M219.89,104.42c0-5.52-3.88-7.76-8.66-5l-2.99,1.73c-4.78,2.76-8.66,9.48-8.66,15v1.49c2.76,.92,6.25,.42,10.04-1.77,3.9-2.25,7.47-5.9,10.27-10.16v-1.28Z"/>
      <g>
        <path class="cls-7" d="M209.62,86.49c2.91-1.68,5.27-.32,5.27,3.04s-2.36,7.45-5.27,9.13c-2.91,1.68-5.27,.32-5.27-3.04s2.36-7.45,5.27-9.13Z"/>
        <path class="cls-7" d="M219.89,104.42c0-5.52-3.88-7.76-8.66-5l-2.99,1.73c-4.78,2.76-8.66,9.48-8.66,15v1.49c2.76,.92,6.25,.42,10.04-1.77,3.9-2.25,7.47-5.9,10.27-10.16v-1.28Z"/>
      </g>
      <g>
        <path class="cls-8" d="M178.18,138.71l20.91-12.07c.96-.55,1.73-.1,1.73,1v.69c0,1.11-.78,2.45-1.73,3l-20.91,12.07c-.96,.55-1.73,.1-1.73-1v-.69c0-1.1,.78-2.45,1.73-3Z"/>
        <path class="cls-9" d="M178.18,138.71l20.91-12.07c.96-.55,1.73-.1,1.73,1v.69c0,1.11-.78,2.45-1.73,3l-20.91,12.07c-.96,.55-1.73,.1-1.73-1v-.69c0-1.1,.78-2.45,1.73-3Z"/>
      </g>
      <g>
        <path class="cls-8" d="M177.31,153.29l63.26-36.52c.48-.28,.87-.05,.87,.5v7.38c0,.55-.39,1.22-.87,1.5l-63.26,36.52c-.48,.28-.87,.05-.87-.5v-7.38c0-.55,.39-1.22,.87-1.5Z"/>
        <path class="cls-7" d="M177.31,153.29l63.26-36.52c.48-.28,.87-.05,.87,.5v7.38c0,.55-.39,1.22-.87,1.5l-63.26,36.52c-.48,.28-.87,.05-.87-.5v-7.38c0-.55,.39-1.22,.87-1.5Z"/>
      </g>
      <g>
        <path class="cls-8" d="M178.18,171.55l20.91-12.07c.96-.55,1.73-.1,1.73,1v.69c0,1.1-.78,2.45-1.73,3l-20.91,12.07c-.96,.55-1.73,.1-1.73-1v-.69c0-1.1,.78-2.45,1.73-3Z"/>
        <path class="cls-9" d="M178.18,171.55l20.91-12.07c.96-.55,1.73-.1,1.73,1v.69c0,1.1-.78,2.45-1.73,3l-20.91,12.07c-.96,.55-1.73,.1-1.73-1v-.69c0-1.1,.78-2.45,1.73-3Z"/>
      </g>
      <g>
        <path class="cls-8" d="M177.31,186.12l63.26-36.52c.48-.28,.87-.05,.87,.5v7.38c0,.55-.39,1.22-.87,1.5l-63.26,36.52c-.48,.28-.87,.05-.87-.5v-7.38c0-.55,.39-1.22,.87-1.5Z"/>
        <path class="cls-7" d="M177.31,186.12l63.26-36.52c.48-.28,.87-.05,.87,.5v7.38c0,.55-.39,1.22-.87,1.5l-63.26,36.52c-.48,.28-.87,.05-.87-.5v-7.38c0-.55,.39-1.22,.87-1.5Z"/>
      </g>
      <g>
        <path class="cls-8" d="M202.55,190.31l24.97-14.42c.96-.55,1.73-.1,1.73,1v7.73c0,1.1-.78,2.45-1.73,3l-24.97,14.42c-.96,.55-1.73,.1-1.73-1v-7.73c0-1.1,.78-2.45,1.73-3Z"/>
        <path class="cls-9" d="M202.55,190.31l24.97-14.42c.96-.55,1.73-.1,1.73,1v7.73c0,1.1-.78,2.45-1.73,3l-24.97,14.42c-.96,.55-1.73,.1-1.73-1v-7.73c0-1.1,.78-2.45,1.73-3Z"/>
      </g>
    </g>
  </g>
  <g id="Character">
    <g>
      <path class="cls-12" d="M261.75,157.73s-12.29-16.95-13.03-18.96c-.57-1.52,.04-3.78,.18-4.83,.14-1.05,.34-3.39,.52-4.04,.31-1.14-1.17-.9-1.99,.13-.85,1.06-1.12,3.12-1.54,3.46-.42,.34-3.7-4.43-5.42-6.64-1.71-2.21-2.78-3.54-3.82-2.72-.75,.59-.19,1.88,1.05,3.75,1.24,1.88,1.79,2.75,1.98,3.15,.19,.4-.83,.44-1.38,1.28-.43,.66-.03,1.73-.6,2.24-.57,.51-1.1,1.43-.48,2.47,.8,1.32,2.39,3.2,4.23,4.48,1.84,1.27,2.58,1.72,3.66,3.45,1.08,1.73,10.87,19.4,11.53,20.46,.66,1.06,1.93,3.22,3.86,3.28,1.93,.06,17.73-13.54,18.54-14.22,2.6-2.17,3.42-2.49,3.87-.53,.14,.61,.23,1.31,.33,2.1,.31,2.48,2,11.34,2,11.34,0,0,7.99,3.87,14.57,1.96,6.58-1.91,8.79-4.66,8.79-4.66l-3.29-5.36c.9-2.21,5.03-11.17,6.33-17.44l-20.6-3.33c-.42-.09-1.1-.26-1.96-.49-1.13-.3-3.97-1.3-6.17,.61-7.09,6.17-21.16,19.04-21.16,19.04"/>
      <path class="cls-3" d="M302.59,261.67l-3.69,5.13s1.71,1,5.36,1.14c3.3,.13,4.21-.96,4.33-1.22,.56-1.2-.31-3.36-.55-5.21l-5.45,.16Z"/>
      <path class="cls-3" d="M299.1,264.33s-4.47-.29-7.57-.67c-3.09-.39-5.54,1.12-4.81,2.39,.73,1.27,2.43,2.33,5.08,3.22,2.27,.76,5,1.32,7.37,2.03,2.43,.73,3.99,1.56,5.36,1.09,1.54-.53,2.19-1.14,2.06-2.26-.13-1.12-1.24-4.72-1.24-4.72l-6.25-1.08Z"/>
      <path class="cls-12" d="M308.59,256.51s-.56,4.66-.6,5.66c-.04,1-4.55,1.32-5.4-.51l-.14-5.7,6.15,.54Z"/>
      <path class="cls-12" d="M304.05,259.38l1.61,7.07s.15,.86-3.53,1.41c-3.68,.55-9.46-1.93-10.44-2.43-.98-.5-1.1-1.5,2.52-1.3,3.62,.2,4.9,.21,4.9,.21l-1.17-3.13,6.12-1.82Z"/>
      <path class="cls-12" d="M311.64,141.89l2.55-.7s5.33,16.87,5.92,18.49c.59,1.62,1.25,3.36,.11,5.37-1.37,2.39-8.58,12.02-8.58,12.02l-4.58-4.48,5.19-9.51-4.59-9.31,3.98-11.88Z"/>
      <path class="cls-16" d="M285.42,119.97s-2.04-3.27,.11-7.27c2.53-4.71,8.2-7.02,14.94-6.13,3.12,.41,6.79,2.97,8.81,6.87,2.22,4.29,2.42,12.93,2.97,16.2l-26.83-9.67Z"/>
      <path class="cls-12" d="M285.26,121.81s-1.6,3.05-1.32,3.33,1.35,.5,1.35,.5l-.02-3.83Z"/>
      <path class="cls-12" d="M290.13,112.17c-1.74,1.14-4.74,3.21-4.87,10.07-.13,7.04,.86,9.3,1.9,10.12,.7,.55,4.81,.27,6.57-.14,1.76-.41,6.83-2.92,8.66-6.73,2.15-4.48,1.71-11.04-1.48-12.95-4.5-2.68-9.3-1.33-10.78-.37Z"/>
      <g>
        <path class="cls-8" d="M308.59,164.7c3.08,4.8,6.02,9.03,6.64,14.42,1.32,11.39-3.01,24.41-3.93,32.83,0,0,2.91,3.78,2.91,8.23,0,3.48-5.62,36.33-5.62,36.33,0,0-4.08,1.24-6.15-.54l-3.86-60.43,2.03-7.36,7.97-23.48Z"/>
        <path class="cls-10" d="M308.59,164.7c3.08,4.8,6.02,9.03,6.64,14.42,1.32,11.39-3.01,24.41-3.93,32.83,0,0,2.91,3.78,2.91,8.23,0,3.48-5.62,36.33-5.62,36.33,0,0-4.08,1.24-6.15-.54l-3.86-60.43,2.03-7.36,7.97-23.48Z"/>
      </g>
      <g>
        <path class="cls-8" d="M298.59,195.53l2.03-7.36s5.63-1.36,11.01-4.37c0,0-2.08,3.79-8.06,5.86l-3.11,9.46-.27,21.64-1.61-25.24Z"/>
        <path class="cls-10" d="M298.59,195.53l2.03-7.36s5.63-1.36,11.01-4.37c0,0-2.08,3.79-8.06,5.86l-3.11,9.46-.27,21.64-1.61-25.24Z"/>
      </g>
      <g>
        <path class="cls-8" d="M308.59,164.7c1.65,2.69,5.59,7.3,4.76,11.72-1.02,5.36-3.9,9.13-12.73,11.75l-8.28,29.98s4.31,4.03,5.63,7.87c1.32,3.84,6.08,33.36,6.08,33.36,0,0-1.47,2.4-6.12,1.82,0,0-16.21-37.02-17.36-39.41-1.14-2.38-1.89-4.17-1.37-8.05,.52-3.88,6.04-46.35,6.04-46.35l23.35-2.69Z"/>
        <path class="cls-10" d="M308.59,164.7c1.65,2.69,5.59,7.3,4.76,11.72-1.02,5.36-3.9,9.13-12.73,11.75l-8.28,29.98s4.31,4.03,5.63,7.87c1.32,3.84,6.08,33.36,6.08,33.36,0,0-1.47,2.4-6.12,1.82,0,0-16.21-37.02-17.36-39.41-1.14-2.38-1.89-4.17-1.37-8.05,.52-3.88,6.04-46.35,6.04-46.35l23.35-2.69Z"/>
      </g>
      <g>
        <path class="cls-8" d="M311.64,141.89l-20.6-3.33c-.42-.09-1.1-.26-1.96-.49h0s-.88,12.92-6.16,15.88h0c.12,.62,.23,1.31,.33,2.1,.31,2.48,2,11.34,2,11.34,0,0,7.99,3.87,14.57,1.96,6.58-1.91,8.79-4.66,8.79-4.66l-3.29-5.36c.9-2.21,5.03-11.17,6.33-17.44Z"/>
        <path class="cls-7" d="M311.64,141.89l-20.6-3.33c-.42-.09-1.1-.26-1.96-.49h0s-.88,12.92-6.16,15.88h0c.12,.62,.23,1.31,.33,2.1,.31,2.48,2,11.34,2,11.34,0,0,7.99,3.87,14.57,1.96,6.58-1.91,8.79-4.66,8.79-4.66l-3.29-5.36c.9-2.21,5.03-11.17,6.33-17.44Z"/>
      </g>
      <path class="cls-9" d="M306.2,157.23c-.08,.19-6.62,3.7-8.56,4.23,3.06-.15,5.61-.87,7.67-2.12l.9-2.11Z"/>
      <path class="cls-16" d="M289.61,112.52s-.96,6.5,1.37,10.32c0,0,.87-2.59,3.07-2.09,2.21,.5,2.31,3.37,.77,5-1.54,1.63-3.25,1.04-3.25,1.04,0,0-.35,4.7-.53,8.64-.18,3.8-1.24,12.53,3.2,16.04,4.43,3.51,15.55,4.7,20.76-2.59,2.9-4.05-.95-11.21-2.74-19.24-1.65-7.38-2.57-18.32-10.41-20.08-7.83-1.75-12.23,2.96-12.23,2.96Z"/>
    </g>
  </g>
  <g id="Cloud">
    <path class="cls-14" d="M318.35,23.7l-1.65,.95c.13-.61,.23-1.21,.23-1.79,0-3.35-2.35-4.7-5.25-3.03-.84,.49-1.63,1.19-2.33,2,0,0,0-.02,0-.02,0-4.5-3.16-6.33-7.06-4.08-3.9,2.25-7.06,7.73-7.06,12.23,0,.23,.01,.45,.03,.66-.83-.15-1.81,.06-2.87,.67-2.9,1.67-5.25,5.74-5.25,9.09,0,.46,.05,.88,.13,1.26l-.88,.51c-2.39,1.38-4.33,4.08-4.33,6.02s1.94,2.4,4.33,1.02l31.96-18.45c2.39-1.38,4.33-4.08,4.33-6.02s-1.94-2.4-4.33-1.02Z"/>
  </g>
</svg>