<?xml version="1.0" encoding="utf-8"?>
<!-- Generator: Adobe Illustrator 26.5.0, SVG Export Plug-In . SVG Version: 6.00 Build 0)  -->
<svg version="1.1" id="Layer_1" xmlns="http://www.w3.org/2000/svg" xmlns:xlink="http://www.w3.org/1999/xlink" x="0px" y="0px"
	 viewBox="0 0 500 500" style="enable-background:new 0 0 500 500;" xml:space="preserve">
<style type="text/css">
	.st0{fill:#F5F5F5;}
	.st1{fill:#EBEBEB;}
	.st2{fill:#A4BDDE;}
	.st3{opacity:0.1;enable-background:new    ;}
	.st4{fill:#FFFFFF;}
	.st5{fill:#FAFAFA;}
	.st6{fill:#E0E0E0;}
	.st7{fill:#494F77;}
	.st8{opacity:0.1;}
	.st9{opacity:0.4;fill:#FFFFFF;enable-background:new    ;}
	.st10{opacity:0.2;enable-background:new    ;}
	.st11{fill:#FAFAFA;stroke:#E0E0E0;stroke-width:1.1698;stroke-miterlimit:10;}
	.st12{fill:#37474F;}
	.st13{fill:#2A2C5E;}
</style>
<g id="freepik--Floor--inject-5">
	<path id="freepik--floor--inject-5" class="st0" d="M85.4,418c88.8,45.4,232.7,45.4,321.4,0s88.8-119,0-164.3s-232.7-45.4-321.4,0
		S-3.3,372.6,85.4,418z"/>
</g>
<g id="freepik--Shadows--inject-5">
	<path id="freepik--Shadow--inject-5" class="st1" d="M375.7,345.5c4.9,2.8,14.4,1.8,21.4-2.2l39.9-23.2c6.9-4,8.6-9.5,3.7-12.3
		s-14.4-1.8-21.4,2.2l-39.9,23.2C372.5,337.2,370.9,342.7,375.7,345.5z"/>
	<polygon id="freepik--shadow--inject-5" class="st1" points="135.3,366.9 94.7,343.5 135.3,320 	"/>
	<polygon id="freepik--shadow--inject-5_00000012432473940591845500000002785183490942668193_" class="st1" points="250.1,380.9 
		184.6,343.1 250.1,305.4 	"/>
</g>
<g id="freepik--Plants--inject-5">
	<g id="freepik--plants--inject-5">
		<path class="st2" d="M80.4,312.1c0.1-9.5-6.5-29.3-16.2-41.7S39,248.7,28,252.3c-10.3,3.4-9.4,16.9,3,25.9s30.9,20.5,36.2,36
			l11.2,19L80.4,312.1z"/>
		<path class="st3" d="M80.4,312.1c0.1-9.5-6.5-29.3-16.2-41.7S39,248.7,28,252.3c-10.3,3.4-9.4,16.9,3,25.9s30.9,20.5,36.2,36
			l11.2,19L80.4,312.1z"/>
		<path class="st4" d="M80.9,325.1c-0.3,0-0.6-0.3-0.6-0.6c-6-32.5-31.9-59.2-47.5-65.2c-0.4-0.1-0.6-0.5-0.5-0.9s0.5-0.6,0.9-0.5
			c0,0,0.1,0,0.1,0.1c15.9,6.1,42.3,33.2,48.4,66.2c0.1,0.4-0.2,0.7-0.5,0.8c0,0,0,0,0,0L80.9,325.1z"/>
		<path class="st2" d="M75.8,345.8c-1.5-5.4-7.9-14.2-18.3-21.7c-11.6-8.2-26.3-12.1-29.6-18.4c-4-7.6,2.4-14.6,14.4-13
			s32.8,18.3,35.9,42.9L75.8,345.8z"/>
		<path class="st4" d="M78.2,340.2c-0.3,0-0.5-0.2-0.6-0.5c-9.6-27.9-30.7-37.9-40.5-39.3c-0.4-0.1-0.6-0.4-0.6-0.8
			c0.1-0.4,0.4-0.6,0.8-0.6c10.8,1.5,31.8,11.7,41.6,40.2c0.1,0.4-0.1,0.8-0.4,0.9C78.4,340.2,78.3,340.2,78.2,340.2z"/>
	</g>
	<g id="freepik--plants--inject-5_00000065788493212273527400000012100720943010996915_">
		<path class="st2" d="M434.9,285c0,0,1.3-20,13.1-34.9s11.1-21,2.9-24s-27,14.9-22.8,38.9S434.9,285,434.9,285z"/>
		<path class="st3" d="M434.9,285c0,0,1.3-20,13.1-34.9s11.1-21,2.9-24s-27,14.9-22.8,38.9S434.9,285,434.9,285z"/>
		<path class="st4" d="M431.3,273.6c-0.2,0-0.4-0.2-0.5-0.4c-1.4-22.1,14.2-40.2,20-44.3c0.2-0.1,0.5-0.1,0.6,0.1c0,0,0,0,0,0
			c0.1,0.2,0.1,0.5-0.1,0.6c-5.7,4-21,21.8-19.6,43.4C431.8,273.3,431.6,273.6,431.3,273.6L431.3,273.6z"/>
		<path class="st2" d="M431.7,301.6c5.3,1.7,10.8,3,16.3,3.9c9.1,1.4,13.2-2.9,13.2-2.9s-3.6-8.6-8.8-11c5.6,1.3,11,3.5,15.9,6.5
			c0,0,5.6,0.1,7.8-8.4c0,0-3.3-5.1-14.4-7.9c0,0,6.8-1.7,16.5,0.8c0.7,0.3,3.8-10.7,4.8-15.8s-1.1-5-5.1-6.1s-17.1-4-19.6-1.8
			s-3.7,9.6-3.7,9.6c-1-3.1-1.1-6.3-0.4-9.4c0,0-3.6-1.4-9.1,0.2c-4.5,1.3-4.7,4.4-4.5,7.9c0.3,3,0.9,6,2,8.8c0,0-3.5-4.5-3.6-14.3
			c0,0-9.3,4.6-10.8,13.8C427.1,280.4,425.9,295,431.7,301.6z"/>
		<path class="st4" d="M433.5,299.8c0.2,0,0.4-0.1,0.5-0.3c7.4-15.3,34.8-33.1,44.6-35c0.3,0,0.5-0.3,0.4-0.6c0,0,0,0,0,0
			c-0.1-0.3-0.3-0.5-0.6-0.4c-10,2-37.9,20-45.4,35.6c-0.1,0.3,0,0.6,0.2,0.7C433.3,299.8,433.4,299.8,433.5,299.8z"/>
	</g>
</g>
<g id="freepik--computer-screen--inject-5">
	<path class="st5" d="M76.8,352.9c-1.1,0-1.8-0.9-1.8-2.5V182.1L281,63.2v167.5c-0.1,2.8-1.6,5.4-4,7L78.4,352.4
		C77.9,352.7,77.4,352.8,76.8,352.9L76.8,352.9z"/>
	<path class="st6" d="M280.4,64.2v166.5c-0.2,2.6-1.6,5-3.8,6.5L78.1,351.8c-0.4,0.3-0.9,0.4-1.3,0.4c-1.1,0-1.2-1.4-1.2-1.9V182.5
		L280.4,64.2 M281.6,62.2L74.4,181.8v168.5c0,2,1,3.1,2.4,3.1c0.7,0,1.3-0.2,1.9-0.6l198.5-114.6c2.6-1.7,4.2-4.5,4.3-7.5
		L281.6,62.2L281.6,62.2z"/>
	<polygon class="st2" points="74.4,181.8 74.4,210 281.5,90.3 281.5,62.2 	"/>
	<path class="st5" d="M90.6,183.3v4c0,0.8,0.6,1.2,1.3,0.8l63.7-36.8v-7l-63.7,36.8C91.2,181.6,90.7,182.4,90.6,183.3z"/>
	<path class="st7" d="M162.4,140.4c0.7-0.4,1.3-0.1,1.3,0.8v4c-0.1,0.9-0.5,1.7-1.3,2.2l-6.8,3.9v-7L162.4,140.4z"/>
	<path class="st7" d="M74.4,172.7c0.2-3,1.8-5.8,4.3-7.5L277.2,50.6c2.4-1.4,4.3-0.3,4.3,2.5v9.1L74.4,181.8V172.7z"/>
	<path class="st2" d="M258.5,66.1c-1.2,0.8-1.9,2.1-2,3.5c0,1.3,0.9,1.8,2,1.2c1.2-0.8,1.9-2.1,2-3.5
		C260.6,66,259.6,65.5,258.5,66.1z"/>
	<path class="st2" d="M265,62.4c-1.2,0.8-1.9,2.1-2,3.5c0,1.3,0.9,1.8,2,1.2c1.2-0.8,1.9-2.1,2-3.5C267,62.3,266.1,61.8,265,62.4z"
		/>
	<path class="st2" d="M271.4,58.7c-1.2,0.8-1.9,2.1-2,3.5c0,1.3,0.9,1.8,2,1.2c1.2-0.8,1.9-2.1,2-3.5
		C273.4,58.6,272.5,58,271.4,58.7z"/>
	<g class="st8">
		<path d="M216.6,108.7c-2.6,1.7-4.3,4.6-4.4,7.7c0,2.8,2,4,4.4,2.6c2.6-1.7,4.3-4.6,4.4-7.7C221,108.4,219,107.3,216.6,108.7z"/>
		<path d="M196.2,120.4c-2.6,1.7-4.3,4.6-4.4,7.7c0,2.8,2,4,4.4,2.6c2.6-1.7,4.3-4.6,4.4-7.7C200.7,120.1,198.7,119,196.2,120.4z"/>
		<path d="M236.9,97c-2.6,1.7-4.3,4.6-4.4,7.7c0,2.8,2,4,4.4,2.6c2.6-1.7,4.3-4.6,4.4-7.7C241.3,96.7,239.3,95.5,236.9,97z"/>
		<path d="M257.2,85.2c-2.6,1.7-4.3,4.6-4.4,7.7c0,2.8,2,4,4.4,2.6c2.6-1.7,4.3-4.6,4.4-7.7C261.6,84.9,259.6,83.8,257.2,85.2z"/>
	</g>
	<path class="st6" d="M95,212.1l48.2-27.8c2.4-1.4,4.3-0.3,4.3,2.5v46.3c-0.2,3-1.8,5.8-4.3,7.5L95,268.4c-2.4,1.4-4.3,0.3-4.3-2.5
		v-46.3C90.8,216.6,92.4,213.8,95,212.1z"/>
	<path class="st6" d="M164,172.3L265,114c2.4-1.4,4.3-0.3,4.3,2.5v46.3c-0.2,3-1.8,5.8-4.3,7.5l-101,58.3c-2.4,1.4-4.3,0.3-4.3-2.5
		v-46.3C159.8,176.7,161.4,173.9,164,172.3z"/>
	<path class="st6" d="M95,282.5l76.6-44.2c2.4-1.4,4.3-0.4,4.3,2.2c-0.2,2.9-1.8,5.6-4.3,7.2L95,291.9c-2.4,1.4-4.3,0.4-4.3-2.2
		C90.9,286.7,92.5,284.1,95,282.5z"/>
	<path class="st6" d="M95,298.9l76.6-44.2c2.4-1.4,4.3-0.4,4.3,2.2c-0.2,2.9-1.8,5.6-4.3,7.2L95,308.3c-2.4,1.4-4.3,0.4-4.3-2.2
		C90.9,303.2,92.5,300.5,95,298.9z"/>
	<path class="st6" d="M95,315.3l76.6-44.2c2.4-1.4,4.3-0.4,4.3,2.2c-0.2,2.9-1.8,5.6-4.3,7.2L95,324.7c-2.4,1.4-4.3,0.4-4.3-2.2
		C90.9,319.6,92.5,316.9,95,315.3z"/>
</g>
<g id="freepik--Envelope--inject-5">
	<g id="freepik--Letter--inject-5">
		<path class="st2" d="M131.2,259.7c0.1-1.8,1.1-3.5,2.6-4.5l132.9-76.7c1.6-0.8,3.6-0.8,5.2,0l2.9,1.7c1.5,1,2.5,2.7,2.6,4.5v101.9
			c-0.1,1.8-1.1,3.5-2.6,4.5L142,367.7c-1.6,0.8-3.6,0.8-5.2,0l-2.9-1.7c-1.5-1-2.5-2.7-2.6-4.5L131.2,259.7z"/>
		<path class="st9" d="M132,257.1l7.4,4.3l137.3-79.3c-0.4-0.8-1.1-1.5-1.8-1.9l-2.9-1.7c-1.6-0.8-3.6-0.8-5.2,0l-133,76.7
			C133.1,255.7,132.4,256.3,132,257.1z"/>
		<path class="st3" d="M131.2,259.7v101.9c0.1,1.8,1.1,3.5,2.6,4.5l2.9,1.7c0.2,0.1,0.5,0.2,0.7,0.3c0.3,0.1,0.7,0.2,1.1,0.2
			c0.7,0.1,1.4,0.1,2.1-0.1c0.2,0,0.3-0.1,0.5-0.1l0.3-0.1c-0.4,0.2-0.9,0.2-1.2,0c-0.6-0.4-0.9-1-0.8-1.7V264.4
			c-0.1-0.9,0.5-1.8,1.4-2.2l-1.4-0.8l-7.4-4.3C131.5,257.9,131.3,258.8,131.2,259.7z"/>
		<path class="st10" d="M139.4,261.4l61.6,23c4.4,1.6,9.3,0,11.9-3.9l9.9-15.1l54.5-83.5l-52.6,84.1l52.8,20.7
			c0,0.9-0.3,1.8-0.8,2.6l-52.1-23L213,284.5c-2.6,4.2-8,5.9-12.5,3.8l-8.2-3.6L140.2,368c-0.6-0.4-0.9-1-0.8-1.7v-1.7l52.7-79.9
			L139.4,261.4z"/>
	</g>
</g>
<g id="freepik--mobile-screen--inject-5">
	<path class="st11" d="M249.1,144.4v233.9c0,2.8,1.9,3.9,4.3,2.5l105.1-60.7c2.6-1.7,4.2-4.5,4.3-7.5V78.7c0-2.8-1.9-3.9-4.3-2.5
		l-105.1,60.7C250.8,138.6,249.2,141.4,249.1,144.4z"/>
	<path class="st7" d="M255.1,148.8c0.1-0.8,0.5-1.4,1.1-1.8l12-6.9c0.6-0.4,1.1-0.1,1.1,0.5c-0.1,0.7-0.5,1.4-1.1,1.8l-12,6.9
		C255.6,149.6,255.1,149.4,255.1,148.8z"/>
	<path class="st7" d="M255.1,153.4c0.1-0.8,0.5-1.4,1.1-1.8l12-6.9c0.6-0.4,1.1-0.1,1.1,0.5c-0.1,0.8-0.5,1.4-1.1,1.8l-12,6.9
		C255.6,154.3,255.1,154.1,255.1,153.4z"/>
	<path class="st7" d="M255.1,158.1c0.1-0.8,0.5-1.4,1.1-1.8l12-6.9c0.6-0.4,1.1-0.1,1.1,0.5c-0.1,0.8-0.5,1.4-1.1,1.8l-12,6.9
		C255.6,159,255.1,158.7,255.1,158.1z"/>
	<path class="st7" d="M354.7,98.1v-1.9c0-0.1-0.1-0.1-0.1-0.1c0,0,0,0-0.1,0l-1.4,0.7c-0.1,0-0.2,0-0.2-0.1c0,0,0,0,0,0
		c-0.1-0.2-0.2-0.5-0.3-0.7c-0.1-0.1-0.1-0.2,0-0.3l1-1.9c0.1-0.1,0-0.2-0.1-0.3l-1-0.6c-0.1,0-0.2,0-0.3,0.1l-1.2,1.8
		c-0.1,0.1-0.2,0.2-0.3,0.2c-0.3,0-0.5,0-0.8,0.1c-0.1,0-0.2,0-0.2-0.1c0,0,0,0,0,0l-0.2-1.6c0-0.1-0.1-0.2-0.2-0.1l-1.6,0.9
		c-0.1,0.1-0.2,0.2-0.2,0.3l-0.2,1.8c0,0.1-0.1,0.2-0.2,0.3c-0.3,0.3-0.6,0.6-0.9,1c-0.1,0.1-0.2,0.1-0.3,0.1l-1-0.4
		c-0.1,0-0.2,0-0.3,0.1l-1.2,2.1c0,0.1,0,0.2,0,0.3l0.8,0.7c0.1,0.1,0.1,0.2,0.1,0.3c-0.2,0.4-0.3,0.8-0.4,1.3
		c0,0.1-0.1,0.2-0.2,0.3l-1.5,1c-0.1,0.1-0.2,0.2-0.2,0.3v1.9c0,0.1,0,0.1,0.1,0.1c0,0,0.1,0,0.1,0l1.4-0.7c0.1,0,0.2,0,0.2,0.1
		c0,0,0,0,0,0c0.1,0.2,0.2,0.5,0.3,0.7c0.1,0.1,0.1,0.2,0,0.3l-1,1.9c0,0.1,0,0.2,0.1,0.3l1,0.6c0.1,0,0.2,0,0.3-0.1l1.2-1.8
		c0.1-0.1,0.2-0.2,0.3-0.2c0.3,0,0.5,0,0.8-0.1c0.1,0,0.2,0,0.2,0.1c0,0,0,0,0,0l0.2,1.6c0,0.1,0.1,0.2,0.2,0.1l1.6-0.9
		c0.1-0.1,0.2-0.2,0.2-0.3l0.2-1.8c0-0.1,0.1-0.2,0.2-0.3c0.3-0.3,0.6-0.6,0.9-1c0.1-0.1,0.2-0.1,0.3-0.1l1,0.4c0.1,0,0.2,0,0.3-0.1
		l1.2-2.1c0.1-0.1,0-0.2-0.1-0.3l-0.8-0.7c-0.1-0.1-0.1-0.2-0.1-0.3c0.2-0.4,0.3-0.8,0.4-1.3c0-0.1,0.1-0.2,0.2-0.3l1.5-1
		C354.6,98.3,354.7,98.2,354.7,98.1z M348.3,104c-1.5,0.9-2.7,0.2-2.7-1.6c0.1-1.9,1.1-3.7,2.7-4.7c1.5-0.9,2.7-0.2,2.7,1.6
		C351,101.2,350,103,348.3,104z"/>
	<path class="st7" d="M305.9,144.2c12.3-7.1,22.2-1.3,22.2,12.8s-10,31.4-22.2,38.5s-22.2,1.3-22.2-12.8S293.6,151.3,305.9,144.2z"
		/>
	<path class="st2" d="M305.8,155.4c4-2.3,7.2-0.4,7.2,4.2c-0.3,5.1-3,9.7-7.2,12.5c-4,2.3-7.2,0.4-7.2-4.2
		C298.8,162.8,301.5,158.1,305.8,155.4z"/>
	<path class="st2" d="M320,179.9c0-7.6-5.3-10.6-11.9-6.8l-4.1,2.4c-6.5,3.8-11.9,13-11.9,20.5v2.1c1.2,0.4,2.5,0.6,3.8,0.6
		c3.5-0.1,6.9-1.2,9.9-3c5.7-3.5,10.5-8.3,14.1-13.9V179.9z"/>
	<path class="st2" d="M285.9,216.6l40.1-23.2c1.2-0.7,2.2-0.2,2.2,1.1c-0.1,1.5-0.9,2.8-2.2,3.6l-40.1,23.2
		c-1.2,0.7-2.2,0.2-2.2-1.1C283.8,218.8,284.6,217.4,285.9,216.6z"/>
	<path class="st7" d="M281.5,233.2l48.7-28.2c1.2-0.7,2.2-0.2,2.2,1.1c-0.1,1.5-0.9,2.8-2.2,3.6l-48.7,28.2
		c-1.2,0.7-2.2,0.2-2.2-1.1C279.5,235.3,280.3,234,281.5,233.2z"/>
	<path class="st12" d="M331.6,227.7l13.6-7.9c0.7-0.4,1.3-0.2,1.3,0.4c-0.1,0.8-0.6,1.5-1.3,1.9l-13.6,7.9c-0.7,0.4-1.3,0.2-1.3-0.4
		C330.4,228.9,330.9,228.1,331.6,227.7z"/>
	<path class="st2" d="M263.4,262.4l20-11.6c1.2-0.7,2.2-0.1,2.2,1.2v13.8c-0.1,1.5-0.9,2.9-2.2,3.8l-20,11.6
		c-1.2,0.7-2.2,0.1-2.2-1.2v-13.8C261.3,264.7,262.1,263.3,263.4,262.4z"/>
	<path class="st5" d="M266.6,264.4l13.6-7.9c0.7-0.4,1.3-0.2,1.3,0.4c-0.1,0.8-0.6,1.5-1.3,1.9l-13.6,7.9c-0.7,0.4-1.3,0.2-1.3-0.4
		C265.4,265.5,265.9,264.8,266.6,264.4z"/>
	<path class="st5" d="M265.3,271.3v4c0,0.8,0.6,1.2,1.3,0.8l13.6-7.9c0.8-0.5,1.3-1.3,1.3-2.2v-4c0-0.8-0.6-1.2-1.3-0.8l-13.6,7.8
		C265.8,269.5,265.3,270.4,265.3,271.3z"/>
	<path class="st2" d="M295.9,243.7l20-11.6c1.2-0.7,2.2-0.1,2.2,1.2v13.8c-0.1,1.5-0.9,2.9-2.2,3.8l-20,11.6
		c-1.2,0.7-2.2,0.1-2.2-1.2v-13.8C293.8,245.9,294.6,244.5,295.9,243.7z"/>
	<path class="st5" d="M299.1,245.6l13.6-7.9c0.7-0.4,1.3-0.2,1.3,0.4c-0.1,0.8-0.6,1.5-1.3,1.9l-13.6,7.9c-0.7,0.4-1.3,0.2-1.3-0.4
		C297.9,246.7,298.4,246,299.1,245.6z"/>
	<path class="st5" d="M297.8,252.5v4c0,0.8,0.6,1.2,1.3,0.8l13.6-7.9c0.8-0.5,1.2-1.3,1.3-2.2v-4c0-0.8-0.6-1.2-1.3-0.8l-13.6,7.9
		C298.3,250.8,297.8,251.6,297.8,252.5z"/>
	<path class="st2" d="M328.4,224.9l20-11.6c1.2-0.7,2.2-0.1,2.2,1.2v13.8c-0.1,1.5-0.9,2.9-2.2,3.8l-20,11.6
		c-1.2,0.7-2.2,0.1-2.2-1.2v-13.8C326.3,227.1,327.1,225.7,328.4,224.9z"/>
	<path class="st5" d="M331.6,226.8l13.6-7.8c0.7-0.4,1.3-0.2,1.3,0.4c-0.1,0.8-0.6,1.5-1.3,1.9l-13.6,7.9c-0.7,0.4-1.3,0.2-1.3-0.4
		C330.4,228,330.9,227.2,331.6,226.8z"/>
	<path class="st5" d="M330.3,233.8v4c0,0.8,0.6,1.2,1.3,0.8l13.6-7.9c0.8-0.5,1.3-1.3,1.3-2.2v-4c0-0.8-0.6-1.2-1.3-0.8l-13.6,7.9
		C330.8,232,330.3,232.9,330.3,233.8z"/>
	<path class="st6" d="M265.6,294l80.7-46.6c2.4-1.4,4.3-0.4,4.3,2.2c-0.2,3-1.8,5.6-4.3,7.2l-80.7,46.6c-2.4,1.4-4.3,0.4-4.3-2.2
		C261.5,298.2,263.1,295.6,265.6,294z"/>
	<path class="st6" d="M265.6,312.8l80.7-46.6c2.4-1.4,4.3-0.4,4.3,2.2c-0.2,3-1.8,5.6-4.3,7.2l-80.7,46.6c-2.4,1.4-4.3,0.4-4.3-2.2
		C261.5,317,263.1,314.3,265.6,312.8z"/>
	<path class="st2" d="M291.8,321.1l28.2-16.3c1.2-0.7,2.2-0.1,2.2,1.2v9.1c-0.1,1.5-0.9,2.9-2.2,3.8l-28.2,16.3
		c-1.2,0.7-2.2,0.1-2.2-1.2v-9.1C289.8,323.3,290.6,321.9,291.8,321.1z"/>
	<path class="st5" d="M267.3,295.4c-1.2,0.8-1.9,2.1-2,3.5c0,1.3,0.9,1.8,2,1.2c1.2-0.8,1.9-2.1,2-3.5
		C269.4,295.3,268.5,294.7,267.3,295.4z"/>
	<path class="st5" d="M273.8,291.7c-1.2,0.8-1.9,2.1-2,3.5c0,1.3,0.9,1.8,2,1.2c1.2-0.8,1.9-2.1,2-3.5
		C275.8,291.5,274.9,291,273.8,291.7z"/>
	<path class="st5" d="M280.2,288c-1.2,0.8-1.9,2.1-2,3.5c0,1.3,0.9,1.8,2,1.2c1.2-0.8,1.9-2.1,2-3.5
		C282.2,287.8,281.3,287.3,280.2,288z"/>
	<path class="st5" d="M286.6,284.2c-1.2,0.8-1.9,2.1-2,3.5c0,1.3,0.9,1.8,2,1.2c1.2-0.8,1.9-2.1,2-3.5
		C288.7,284.1,287.8,283.6,286.6,284.2z"/>
	<path class="st5" d="M293.1,280.5c-1.2,0.8-1.9,2.1-2,3.5c0,1.3,0.9,1.8,2,1.2c1.2-0.8,1.9-2.1,2-3.5
		C295.1,280.4,294.2,279.9,293.1,280.5z"/>
	<path class="st5" d="M299.5,276.8c-1.2,0.8-1.9,2.1-2,3.5c0,1.3,0.9,1.8,2,1.2c1.2-0.8,1.9-2.1,2-3.5
		C301.5,276.7,300.6,276.1,299.5,276.8z"/>
	<path class="st5" d="M305.9,273.1c-1.2,0.8-1.9,2.1-2,3.5c0,1.3,0.9,1.8,2,1.2c1.2-0.8,1.9-2.1,2-3.5
		C308,273,307.1,272.4,305.9,273.1z"/>
	<path class="st5" d="M267.3,314.2c-1.2,0.8-1.9,2.1-2,3.5c0,1.3,0.9,1.8,2,1.2c1.2-0.8,1.9-2.1,2-3.5
		C269.4,314,268.5,313.5,267.3,314.2z"/>
	<path class="st5" d="M273.8,310.5c-1.2,0.8-1.9,2.1-2,3.5c0,1.3,0.9,1.8,2,1.2c1.2-0.8,1.9-2.1,2-3.5
		C275.8,310.3,274.9,309.8,273.8,310.5z"/>
	<path class="st5" d="M280.2,306.7c-1.2,0.8-1.9,2.1-2,3.5c0,1.3,0.9,1.8,2,1.2c1.2-0.8,1.9-2.1,2-3.5
		C282.2,306.6,281.3,306.1,280.2,306.7z"/>
	<path class="st5" d="M286.6,303c-1.2,0.8-1.9,2.1-2,3.5c0,1.3,0.9,1.8,2,1.2c1.2-0.8,1.9-2.1,2-3.5
		C288.7,302.9,287.8,302.4,286.6,303z"/>
	<path class="st5" d="M293.1,299.3c-1.2,0.8-1.9,2.1-2,3.5c0,1.3,0.9,1.8,2,1.2c1.2-0.8,1.9-2.1,2-3.5
		C295.1,299.2,294.2,298.6,293.1,299.3z"/>
	<path class="st5" d="M299.5,295.6c-1.2,0.8-1.9,2.1-2,3.5c0,1.3,0.9,1.8,2,1.2c1.2-0.8,1.9-2.1,2-3.5
		C301.5,295.5,300.6,294.9,299.5,295.6z"/>
	<path class="st5" d="M305.9,291.9c-1.2,0.8-1.9,2.1-2,3.5c0,1.3,0.9,1.8,2,1.2c1.2-0.8,1.9-2.1,2-3.5
		C308,291.7,307.1,291.2,305.9,291.9z"/>
</g>
<g id="freepik--Key--inject-5">
	<path class="st7" d="M396.2,334.1c-3.5,0-6.9-0.9-9.9-2.6c-7.2-4.2-11.3-12.9-11.3-23.9c0-19.4,12.3-41.7,28-50.8
		c8.5-4.9,16.9-5.4,23.7-1.5c7.2,4.2,11.3,12.9,11.3,23.9c0,19.4-12.3,41.7-28,50.8C405.8,332.6,401.1,334,396.2,334.1z
		 M416.9,266.8c-2.4,0.2-4.8,0.9-6.9,2.2c-11.4,6.5-21,24.3-21,38.6c0,5.8,1.6,10.2,4.4,11.8c3.1,1.8,7.4-0.2,9.7-1.5
		c11.4-6.6,21.1-24.3,21.1-38.7c0-5.8-1.6-10.2-4.4-11.8C418.9,267,417.9,266.7,416.9,266.8z"/>
	<path class="st13" d="M426.6,282.4c0-10.9-6.9-14.9-6.9-14.9l0,0c2.7,1.6,4.4,6,4.4,11.8c0,14.4-9.6,32.1-21.1,38.7
		c-2.3,1.3-6.6,3.3-9.7,1.5c0,0,5.8,3.6,13.8-0.8C418.7,312.4,426.6,296.8,426.6,282.4z"/>
	<path class="st13" d="M415.6,146.3c-0.1-4-3.5-7.1-7.5-6.9c-3.8,0.1-6.8,3.2-6.9,6.9l0,0l0,0V261l0,0c0.1,1.3,0.9,2.5,2.1,3
		c3.2,1.6,7,1.6,10.2,0c1.2-0.5,2-1.7,2.1-3l0,0V146.3L415.6,146.3L415.6,146.3z"/>
	<path class="st7" d="M409.9,171.9c-0.2-2.9-1.7-5.6-4.2-7.2c-0.9-0.6-2-0.7-3-0.3l0,0l-17.8,10.2l-0.4,0.2c-0.1,0-0.1,0.1-0.2,0.1
		c-0.3,0.2-0.6,0.4-0.9,0.7c-2.3,2.3-2.3,6,0,8.3c1.8,1.8,4.7,2.3,7,1l0.3-0.2l17.9-10.3l0,0C409.5,174,410,173,409.9,171.9z"/>
	<path class="st7" d="M409.9,200.6c-0.2-2.9-1.7-5.6-4.2-7.2c-0.9-0.6-2-0.8-3-0.3l0,0l-20.9,12l-0.4,0.2c-0.1,0-0.1,0.1-0.2,0.1
		c-0.3,0.2-0.6,0.4-0.9,0.7c-2.3,2.3-2.3,6.1,0,8.4c0.4,0.4,0.8,0.7,1.3,1c0.9,0.5,1.8,0.7,2.8,0.7c1,0,1.9-0.2,2.8-0.7
		c0.1-0.1,0.2-0.1,0.3-0.2l21-12l0,0C409.5,202.8,410,201.7,409.9,200.6z"/>
</g>
</svg>
