<?xml version="1.0" encoding="UTF-8"?>
<svg id="Layer_2" data-name="Layer 2" xmlns="http://www.w3.org/2000/svg" xmlns:xlink="http://www.w3.org/1999/xlink" viewBox="0 0 427.14 373.22">
  <defs>
    <style>
      .cls-1, .cls-2, .cls-3, .cls-4, .cls-5, .cls-6, .cls-7, .cls-8, .cls-9, .cls-10, .cls-11, .cls-12, .cls-13, .cls-14, .cls-15, .cls-16, .cls-17 {
        fill-rule: evenodd;
      }

      .cls-1, .cls-18 {
        fill: #efc092;
      }

      .cls-19, .cls-4 {
        fill: #fff;
      }

      .cls-2, .cls-20 {
        fill: #5e6592;
      }

      .cls-3, .cls-21 {
        fill: #662a28;
      }

      .cls-5, .cls-22 {
        fill: #e56e33;
      }

      .cls-6 {
        fill: #f4c6a6;
      }

      .cls-23 {
        clip-path: url(#clippath-2);
      }

      .cls-24 {
        fill: #cc5a44;
      }

      .cls-25 {
        clip-path: url(#clippath-1);
      }

      .cls-7 {
        fill: #9b7542;
      }

      .cls-8, .cls-26 {
        fill: #e09765;
      }

      .cls-9, .cls-27 {
        fill: #9eb7db;
      }

      .cls-10, .cls-28 {
        fill: #aa834b;
      }

      .cls-11 {
        fill: #9b5918;
      }

      .cls-12, .cls-29 {
        fill: #2a2c5e;
      }

      .cls-13 {
        fill: #fcaa3d;
      }

      .cls-30, .cls-14 {
        fill: #dd9226;
      }

      .cls-31 {
        clip-path: url(#clippath);
      }

      .cls-32 {
        clip-rule: evenodd;
        fill: none;
      }

      .cls-33 {
        fill: #e8e8e8;
      }

      .cls-34 {
        clip-path: url(#clippath-3);
      }

      .cls-15 {
        fill: #cca971;
      }

      .cls-16, .cls-35 {
        fill: #70502a;
      }

      .cls-17 {
        fill: #ffe9cf;
      }
    </style>
    <clipPath id="clippath">
      <path class="cls-32" d="M275.48,135.42c0,5.23,1.79,20.75,0,25.35-.6,1.53-40.07,14.7-40.84,16.13-1.54,2.87-31.86,5.58-35.08,5.28-12.18-1.15-5.27-18.8-5.27-18.8,15.85-4.33,25.81-8.54,25.81-8.54-16.39,0-30.52-9.67-37.01-23.61-2.43-5.22-3.78-11.04-3.78-17.18s1.4-12.16,3.91-17.44c1.59-3.36-5.5-21.41-3.09-24.19,2.42-2.79,15.26-21.38,18.35-23.43,2.09-1.39,20.86-19.46,23.2-20.44,4.88-2.06,24.43,35.94,30.06,35.94,6.57,0-18.84,10.32-13.34,13.09,11.64,5.85,20.09,17.1,22.07,30.46,.29,1.96,15.02,25.35,15.02,27.4Z"/>
    </clipPath>
    <clipPath id="clippath-1">
      <path class="cls-32" d="M389.02,159.89c0,22.53-18.26,40.79-40.79,40.79-9.34,0-17.95-3.14-24.83-8.43-9.71-7.46-29.65-21.36-34.26-33.71-5.31-14.24-11.79-48.94-14.45-64.92-1.18-7.07-16.07-24.13-8.87-26.32,4.26-1.3,18.93-14.46,30.23-11.02,5.82,1.77,9.99,21.32,12.96,21.16,10.23-.56,33.81,.03,37.85,.03,11.58,0,23.42,46.44,30.84,54.19,7.02,7.33,11.34,17.27,11.34,28.22Z"/>
    </clipPath>
    <clipPath id="clippath-2">
      <path class="cls-32" d="M399.61,308.01c0,22.36-18.12,40.48-40.48,40.48-15.3,0-28.61-8.49-35.5-21-2.62-4.76-35.29-45.06-35.8-50.74-.11-1.21-12.37-38.42-12.37-39.66,0-3.33-23.72-15.29-16.82-17.88,2.1-.79,5.64-26.99,7.4-27.79,1.23-.56,19.08,5.35,26.92,12.91,8.82,8.51,7.68,18.8,7.99,18.11,6.3-14.17,35.99,15.54,52.5,15.54,8.14,0,26.05-22.91,32.4-18.77,3.81,2.48-6.33-26.23-3.55-22.64,1.37,1.77,17.44-20.11,23.88-12.13,.87,1.08,19.67,14.94,20.5,15.97,4.03,5.08-19.46,27.15-18.93,28.57,1.65,4.41-8.12,74.06-8.12,79.04Z"/>
    </clipPath>
    <clipPath id="clippath-3">
      <path class="cls-32" d="M120.78,234.09c0,22.53-18.26,40.79-40.79,40.79-14.55,0-27.32-7.62-34.54-19.08-3.96-6.29-28.59-22.48-28.59-30.46,0-2.57-4.29-33.71-2.96-35.79,1.85-2.9,33.79-45.19,37.86-44.65,1.04,.14-9.39-25.18-6.51-25.24,2.38-.05,31.04-5.03,33.85-4.95,7.77,.24,2.64,31.66,3.04,36.47,1.33,16.12,17.85,16.19,22.86,16.19,12.46,0-1.39,31.52,6.09,40.34,6.04,7.11,9.69,16.33,9.69,26.39Z"/>
    </clipPath>
  </defs>
  <g id="OBJECTS">
    <g>
      <g>
        <g>
          <path class="cls-12" d="M191.67,302.32c.21,6.24,1.59,16.4,2.35,24.25,.59,6.08,1.46,9.41-2.55,11.46-.76,.39-2.09,.32-2.61,1.4,13.82-.14,28.21-.07,42.56,0,4.02,.02,11.88,.66,12.86-1.93,.73-1.95-1.1-6.84-1.56-9-1.99-9.35-3.66-18.43-5.83-27.12-14.93,.15-30.1,.58-45.21,.95"/>
          <path class="cls-4" d="M223.64,338.43h18.86c.87-.02,1.42-.5,1.28-1.43-.28-1.88-5.01-26.57-6.9-35.64,0-.14,0-.27,.2-.25,1.27,.45,3.78,0,4.8,0,1.49,7.65,7.27,33.05,7.38,35.73,.11,2.68-.49,4.83-2.63,6.14-.83,.51-1.79,.68-2.8,.72-.08,0-.15,.02-.23,.02h-19.96c-1.7,0-3.09-1.19-3.08-2.65,0-1.46,1.38-2.64,3.09-2.64"/>
          <path class="cls-4" d="M184.92,341.74c0,1.08,.81,1.95,1.81,1.95h36.07c1,.01,1.82-.85,1.82-1.93v-1.38c0-1.07-.81-1.94-1.82-1.95l-36.07-.02c-1,0-1.81,.87-1.81,1.95v1.38Z"/>
        </g>
        <g>
          <path class="cls-29" d="M301.71,281.01l.04-89.93c0-12.77-10.34-23.12-23.11-23.12h11.19c12.77,0,23.11,10.36,23.11,23.13l-.04,89.93c0,12.77-10.36,23.11-23.13,23.11h-11.19c12.77,0,23.12-10.35,23.13-23.11"/>
          <path class="cls-19" d="M141.39,167.89h11.19s126.06,.06,126.06,.06c12.77,0,23.11,10.36,23.11,23.12l-.04,89.93c0,12.77-10.36,23.11-23.13,23.1l-126.06-.06h-11.19c-12.77,0-23.11-10.36-23.11-23.13l.04-89.93c0-12.76,10.36-23.11,23.13-23.1"/>
          <path class="cls-27" d="M144.97,171.12h10.57s119.03,.06,119.03,.06c12.06,0,21.82,9.78,21.82,21.84l-.04,84.92c0,12.05-9.78,21.82-21.84,21.82l-119.03-.06h-10.57c-12.06,0-21.82-9.78-21.82-21.84l.04-84.92c0-12.06,9.78-21.82,21.84-21.82"/>
        </g>
      </g>
      <g>
        <g>
          <g>
            <path class="cls-27" d="M64.27,135.87h107.83c3.89,0,7.05,3.16,7.05,7.05v10.93c0,3.89-3.16,7.05-7.05,7.05H64.26c-3.89,0-7.05-3.16-7.05-7.05v-10.93c0-3.89,3.16-7.06,7.06-7.06Z"/>
            <g>
              <g>
                <path class="cls-29" d="M166.96,149.02H68.23c-.61,0-1.11-.5-1.11-1.11s.5-1.11,1.11-1.11h98.73c.61,0,1.11,.5,1.11,1.11s-.5,1.11-1.11,1.11Z"/>
                <path class="cls-19" d="M166.96,149.02H98.62c-.61,0-1.11-.5-1.11-1.11s.5-1.11,1.11-1.11h68.33c.61,0,1.11,.5,1.11,1.11s-.5,1.11-1.11,1.11Z"/>
              </g>
              <path class="cls-22" d="M106.61,148.35c0,2.94-2.38,5.32-5.32,5.32s-5.32-2.38-5.32-5.32,2.38-5.32,5.32-5.32,5.32,2.38,5.32,5.32Z"/>
            </g>
          </g>
          <g>
            <rect class="cls-22" x="142.27" y="344.64" width="52.56" height="4.49" transform="translate(-183.1 505.24) rotate(-88.33)"/>
            <polygon class="cls-22" points="149.78 323.05 139.99 343.17 144.07 345.05 153.86 324.93 149.78 323.05"/>
          </g>
          <g>
            <g>
              <g>
                <rect class="cls-19" x="98.3" y="-1.29" width="4.49" height="37.34" transform="translate(4.37 51.45) rotate(-29.31)"/>
                <polygon class="cls-19" points="101.98 47.99 80.18 42.93 81.29 38.57 103.09 43.63 101.98 47.99"/>
              </g>
              <g>
                <g>
                  <path class="cls-9" d="M169.79,78.83c.63,4.44-2.45,8.55-6.89,9.19l-37.72,5.37c-4.44,.63-8.55-2.45-9.18-6.89l-5.37-37.72c-.63-4.44,2.45-8.55,6.89-9.19l37.72-5.38c4.44-.63,8.55,2.45,9.19,6.89l5.37,37.72Z"/>
                  <path class="cls-4" d="M122.34,56.77c-1.18,.28-1.97,1.41-1.8,2.62l2.66,18.65c.18,1.29,1.37,2.19,2.67,2l32.64-4.65c1.29-.18,2.19-1.37,2-2.67l-2.66-18.65c-.17-1.21-1.26-2.07-2.46-2.01l-8.63,1.23-1.03-2.95c-.3-.84-1.12-1.36-1.98-1.23l-5.56,.79-5.5,.78c-.86,.12-1.51,.85-1.56,1.74l-.16,3.12-8.63,1.23Zm16.98,.82c1.14-.16,2.27-.09,3.33,.18h0c1.1,.28,2.12,.77,3.01,1.45h0c.9,.67,1.65,1.51,2.23,2.49h0c.56,.95,.94,2.02,1.1,3.15,.16,1.15,.1,2.27-.17,3.34h0c-.29,1.1-.78,2.12-1.45,3.01h0c-.67,.89-1.51,1.65-2.49,2.23h0c-.95,.56-2.02,.94-3.15,1.1-1.15,.16-2.27,.1-3.33-.18h0c-1.1-.28-2.12-.78-3.01-1.45h0c-.89-.67-1.65-1.51-2.23-2.49h0c-.56-.95-.94-2-1.1-3.15-.16-1.13-.09-2.27,.18-3.34h0c.28-1.1,.78-2.12,1.45-3.01h0c.67-.89,1.51-1.65,2.49-2.23h0c.95-.56,2-.94,3.15-1.1h0Zm-13.64,.62c.88-.12,1.7,.49,1.83,1.37,.13,.88-.49,1.7-1.37,1.83-.88,.13-1.7-.49-1.83-1.37-.13-.88,.49-1.7,1.37-1.83h0Zm18.31,3.23c-.6-.45-1.3-.79-2.03-.98-.71-.18-1.47-.23-2.25-.12-.78,.11-1.49,.38-2.13,.74-.65,.39-1.23,.91-1.68,1.51-.45,.6-.8,1.3-.98,2.03-.18,.71-.23,1.47-.12,2.25,.11,.78,.38,1.5,.74,2.13,.38,.65,.91,1.22,1.51,1.68,.6,.45,1.3,.79,2.03,.98,.71,.18,1.47,.23,2.25,.12,.78-.11,1.49-.38,2.13-.74,.65-.39,1.23-.91,1.68-1.51,.45-.6,.8-1.3,.98-2.03,.18-.71,.23-1.47,.12-2.25-.11-.78-.37-1.5-.74-2.13-.38-.65-.91-1.23-1.51-1.68h0Z"/>
                </g>
                <polygon class="cls-22" points="201.57 40.79 184.89 54.33 181.51 33.12 201.57 40.79"/>
              </g>
            </g>
            <g>
              <g>
                <path class="cls-5" d="M111.04,117.31c.85,1.23,4.65,7.75,4.65,7.75,0,0-8.62-2.25-10.21-2.7-11.49,6.34-24.53-.33-27.04-11.68-2.15-9.76,3.88-19.56,13.88-21.73,9.88-2.14,20.07,4.16,21.78,14.92,.9,5.66-.77,9.34-3.05,13.44"/>
                <path class="cls-4" d="M106.06,105.85s-.02-.01-.03-.02h0c-.11-.03-.24-.05-.4-.03-.97,.11-2.98,.46-4.65,.77l.89-2.08c.19-.46-.02-.99-.48-1.19l-10.67-4.53c-.46-.2-.99,.02-1.19,.48l-3.44,8.1c-.2,.46,.02,.99,.48,1.19l10.66,4.53c.46,.19,.99-.02,1.19-.48l.84-1.98c.94,1.42,2.08,3.11,2.67,3.89,.09,.12,.19,.2,.3,.26h0s.02,.01,.03,.02c.42,.2,.88-.02,1.03-.35l.04-.1,3.14-7.4,.04-.1c.14-.33-.02-.82-.46-.98"/>
              </g>
              <g>
                <g>
                  <path class="cls-5" d="M77.42,57.68c2.17-.89,4.04-3.97,1.01-3.73,.46-1.65-1.97-2.29-2.42-.47-2.55-.65-2.01,2.72-.71,4.04,.3,.84-.1,1.7-.07,2.64,.09,2.14,1.04,4.05,1.78,6.03,1.4,3.78,1.68,7.86,.51,11.78-1.08,3.63-4.39,7.48-8.33,8.51-.82,.22-1.71,0-2.45,.75,.18,1.96,2.25,1.07,3.43,.69,2.23-.71,4.09-1.58,6.19-3.9,2.85-3.16,3.87-7.71,3.83-11.16-.02-1.98-.35-3.92-.87-5.7-.88-3.03-2.95-6.39-1.89-9.48Z"/>
                  <g>
                    <path class="cls-20" d="M73.65,70.97l-5.74,25.44c-.09,.41-.38,.78-.75,.98l-23.15,12.01c-.36,.19-1.19,.34-1.44,.13-.26-.21-.65-.68-.55-1.08l7.2-24.95c.05-.19,.14-.37,.26-.53,.12-.16,.27-.29,.44-.39l22.33-13.29s.91,.2,1.18,.39c.27,.19,.32,.9,.23,1.29Z"/>
                    <path class="cls-29" d="M72.88,70.37l-5.75,25.44c-.09,.41-.38,.78-.75,.97l-23.15,12.01c-.36,.19-.74,.17-.99-.04-.26-.21-.35-.58-.25-.97l6.46-24.89c.05-.19,.14-.37,.26-.53,.12-.16,.27-.29,.44-.39l22.44-12.56c.35-.2,.74-.2,1,0,.27,.2,.38,.56,.29,.95Z"/>
                  </g>
                </g>
                <g>
                  <path class="cls-20" d="M60.38,91.12c-5.34,6.92-11.29,11.28-13.29,9.74l-14.02-10.82c2,1.54,7.95-2.82,13.29-9.74,5.34-6.92,8.05-13.78,6.05-15.32l14.02,10.82c2,1.54-.71,8.4-6.05,15.32Z"/>
                  <path class="cls-29" d="M46.36,80.31c-5.34,6.92-11.29,11.28-13.29,9.74-2-1.54,.71-8.4,6.05-15.32,5.34-6.92,11.29-11.28,13.29-9.74,2,1.54-.71,8.4-6.05,15.32Z"/>
                </g>
              </g>
            </g>
          </g>
          <g>
            <g>
              <path class="cls-27" d="M237.75,31.24h107.83c3.89,0,7.05,3.16,7.05,7.05v10.93c0,3.89-3.16,7.05-7.05,7.05h-107.83c-3.89,0-7.05-3.16-7.05-7.05v-10.93c0-3.89,3.16-7.06,7.06-7.06Z"/>
              <g>
                <g>
                  <path class="cls-29" d="M340.44,44.39h-98.73c-.61,0-1.11-.5-1.11-1.11s.5-1.11,1.11-1.11h98.73c.61,0,1.11,.5,1.11,1.11s-.5,1.11-1.11,1.11Z"/>
                  <path class="cls-19" d="M340.44,44.39h-68.33c-.61,0-1.11-.5-1.11-1.11s.5-1.11,1.11-1.11h68.33c.61,0,1.11,.5,1.11,1.11s-.5,1.11-1.11,1.11Z"/>
                </g>
                <path class="cls-22" d="M280.09,43.72c0,2.94-2.38,5.32-5.32,5.32s-5.32-2.38-5.32-5.32,2.38-5.32,5.32-5.32,5.32,2.38,5.32,5.32Z"/>
              </g>
            </g>
            <g>
              <path class="cls-27" d="M379.11,106.58c1.76-1.45,3.99-2.25,6.28-2.26l19.58-.09c2.67-.01,5.19,1.01,7.08,2.89,1.9,1.88,2.95,4.39,2.96,7.06l.02,3.2c.02,3.03-1.32,5.87-3.67,7.79-1.77,1.45-4,2.25-6.28,2.26l-6.9,.03c-.92,0-1.77,.34-2.6,1.01-.62,.51-1.14,1.14-1.6,1.71-.22,.26-.42,.51-.62,.73-.11,.12-.23,.26-.37,.41-.56,.63-1.27,1.42-1.95,1.98-.47,.39-.78,.53-.95,.58-.83,.25-1.69-.09-2-.55-.21-.3-.2-.65-.16-1.34,.01-.27,.03-.59,.03-.92,0-.1,0-.21,0-.33,.02-.83,.06-2.54-1.74-3.09-.5-.16-1.11-.24-1.82-.33-.99-.13-2.1-.28-3.01-.65-3.59-1.49-5.92-5.06-5.94-9.09l-.02-3.2c-.01-3.03,1.32-5.87,3.67-7.79"/>
              <g>
                <path class="cls-19" d="M384.92,115.04c.32-.26,.7-.39,1.11-.4,.47,0,.91,.18,1.25,.51,.33,.33,.52,.77,.52,1.24,0,.54-.23,1.04-.65,1.38-.32,.26-.7,.39-1.11,.4-.97,0-1.77-.78-1.78-1.76,0-.53,.23-1.04,.65-1.38"/>
                <path class="cls-19" d="M393.79,114.99c.32-.26,.7-.4,1.11-.4,.97,0,1.77,.78,1.77,1.75,0,.54-.23,1.04-.65,1.38-.32,.26-.7,.4-1.11,.4-.47,0-.92-.18-1.25-.51-.34-.33-.52-.77-.52-1.25,0-.54,.23-1.04,.65-1.38"/>
                <path class="cls-19" d="M402.66,114.94c.32-.26,.7-.4,1.11-.4,.47,0,.92,.18,1.25,.51,.33,.33,.52,.77,.52,1.24,0,.54-.23,1.04-.65,1.38-.32,.26-.7,.4-1.11,.4-.47,0-.92-.18-1.25-.51-.34-.33-.52-.77-.52-1.25,0-.54,.23-1.04,.65-1.38"/>
              </g>
            </g>
            <g>
              <rect class="cls-19" x="364.76" y="64.19" width="52.56" height="4.49" transform="translate(77.59 309.48) rotate(-47.43)"/>
              <polygon class="cls-19" points="395.84 90.28 418.21 89.68 418 85.19 395.62 85.79 395.84 90.28"/>
            </g>
          </g>
          <path class="cls-22" d="M319.68,104.12l-6.09-27.24c-2.73-9.17,3.56-18.15,11.52-19.27,7.23-1.02,15.05,4.54,16.23,13.07,8.78-3.04,17.83,1.98,19.77,9.31,2.02,7.66-3.99,16.85-13.68,17.93-9.25,2.07-18.5,4.14-27.75,6.21Z"/>
        </g>
        <g>
          <g>
            <g>
              <path class="cls-4" d="M147.21,87.44v47.13c0,3.98,3.37,7.21,7.53,7.21h130.77c4.16,0,7.53-3.23,7.53-7.21v-47.13H147.21Z"/>
              <g>
                <path class="cls-5" d="M293.04,81.37c0-3.98-3.37-7.21-7.53-7.21H154.74c-4.16,0-7.53,3.23-7.53,7.21v6.07h145.83v-6.07Z"/>
                <g>
                  <path class="cls-19" d="M155.77,81c0,1.23-1,2.23-2.23,2.23s-2.23-1-2.23-2.23,1-2.23,2.23-2.23,2.23,1,2.23,2.23Z"/>
                  <path class="cls-19" d="M162.76,81c0,1.23-1,2.23-2.23,2.23s-2.23-1-2.23-2.23,1-2.23,2.23-2.23,2.23,1,2.23,2.23Z"/>
                  <path class="cls-19" d="M169.75,81c0,1.23-1,2.23-2.23,2.23s-2.23-1-2.23-2.23,1-2.23,2.23-2.23,2.23,1,2.23,2.23Z"/>
                </g>
              </g>
            </g>
            <g>
              <circle class="cls-29" cx="220.11" cy="114.04" r="40.79" transform="translate(58.82 302.3) rotate(-76.8)"/>
              <g class="cls-31">
                <g>
                  <g>
                    <path class="cls-17" d="M228.69,116.86c.1,.81-.51-1.5-.62-1.79-.29-.73-.63-1.44-.97-2.15-.64-1.31-1.24-2.64-1.81-3.97l-.54,.23-5.69-11.1c1.84-1.17,2.37-3.19,2.08-4.89-.06-.36-.27-1.14-.55-1.45,0,0,.39-1.14,.42-1.83,.18-5.63-2.94-10.65-6.23-13.26-4.79-3.79-11.79-5.82-19.91-2.12-3.91,1.78-6.58,4.37-8.23,7.49-1.1,2.08-1.83,4.63-1.75,7.25,.09,2.81,.75,5.75,1.58,9.03,.38,1.48,.56,2.94,1,4.29,1.2,3.67,3.32,6.59,5.95,8.36,2.68,1.8,7.58,2.69,11.12-.19,0,0,2.16,3.9,3.46,6.55l-1.78,.95c.74,1.15,1.45,2.36,2.38,3.4,2.62,2.92,4.8,5.83,6.32,9.46,.14,.34,.23,.69,.27,1.04,2.94,.25,6.2-.3,9.29-1.92,2.25-1.17,4.09-2.64,5.6-4.38-1.23-2.83-1-5.91-1.38-8.98Z"/>
                    <g>
                      <g>
                        <path class="cls-14" d="M184.61,93.26c.17,.41,1.59,.2,3.15-.47,1.57-.67,2.7-1.54,2.52-1.95-.17-.41-1.59-.2-3.15,.47-1.57,.67-2.7,1.54-2.52,1.95"/>
                        <path class="cls-11" d="M187.46,97.26c.22,.73,.82,1.2,1.36,1.04,.53-.16,.79-.88,.58-1.61-.21-.73-.82-1.2-1.35-1.04-.53,.16-.79,.88-.58,1.61"/>
                      </g>
                      <g>
                        <path class="cls-14" d="M193.44,90.03c.05,.44,1.47,.63,3.16,.42,1.69-.21,3.02-.74,2.96-1.18-.05-.44-1.47-.63-3.16-.42-1.69,.21-3.01,.74-2.96,1.18"/>
                        <path class="cls-11" d="M197.52,94.86c.21,.73,.82,1.2,1.36,1.04,.53-.16,.79-.88,.58-1.61-.21-.73-.82-1.2-1.36-1.04-.53,.16-.79,.87-.58,1.61"/>
                      </g>
                      <path class="cls-1" d="M221.9,110.78l2.84-1.6-5.69-11.1c-.97,.47-1.75,.8-3.57,.73,1.93,3.92,4.45,8.11,6.42,11.97Z"/>
                      <path class="cls-1" d="M211.26,104.24c-1.81,2.36-4.07,4.66-6.73,6.5l1.44,2.68c2.85-2.34,4.71-5.49,5.3-9.18"/>
                      <g>
                        <path class="cls-18" d="M195.41,103.29s-.06,.02-.09,.02c-.81,.09-1.44-.07-1.92-.47-.97-.81-1.1-2.41-1.26-4.43-.1-1.29-.22-2.75-.57-4.24-.06-.27,.11-.56,.38-.61,.28-.07,.55,.1,.62,.38,.37,1.56,.49,3.07,.6,4.39,.13,1.72,.25,3.2,.89,3.73,.26,.22,.64,.3,1.16,.24,.28-.03,.53,.17,.56,.46,.03,.25-.13,.48-.36,.54"/>
                        <path class="cls-18" d="M196.55,105.7c-.48,.14-1.06,.23-1.73,.25-.28,0-.52-.22-.52-.5,0-.28,.22-.52,.5-.52,3-.06,3.42-1.94,3.44-2.02,.06-.27,.33-.45,.6-.4,.28,.05,.45,.32,.4,.59-.02,.09-.39,1.92-2.7,2.6"/>
                      </g>
                    </g>
                    <g>
                      <path class="cls-13" d="M199.04,60.37l-1.17,.56c.48,1.35,1.7,2.5,2.08,4.1,.28,1.15,.07,2.31,.32,3.32,.6,2.45,2.34,3.26,4.3,4.24-8.4-.39-15.53,4.4-18.16,9.65-.4,.8-.67,1.39-.94,2.57,7.3-.25,13-4.35,16.42-7.97,1.94,6.95,5.35,11.44,9.66,14.4,.69-.57,1.37-1.12,2.25-1.44,3.04-1.12,5.66,.06,6.92,2.18,.45-2.01,.31-4.29-.26-6.57-1.26-4.99-4.56-8.35-7.66-10.28,2.53-.35,4.18,.54,6.18,.97,1.89,.41,4.06,.9,6.53,.27,2.06-.53,3.69-1.83,5.08-3.03,1.58-1.37,3.54-3.36,6.04-3.36,2.5,0,4.8,1.07,7.61,.08l-.23-1.25c-3.23,1.22-5.82-.69-8.88,.06-3.85,.94-5.9,5.16-9.85,6.24-2.32,.63-4.4,.07-6.28-.33-2.46-.53-4.4-1.59-7.8-.47l-1.05-.59c2.17-2.34,7.97-2.19,10.59-1.57,3.42,.8,7.03,.24,9.54-2,.59-.52,1.44-1.74,1.78-2.55,.44-1.03,.85-2.15,2.07-2.66,1.92-.81,2.85-.46,4.94-.82,2.73-.46,4.11-1.79,5.22-3.85-6.51-7.46-13.11-14.78-19.47-22.48-5.34,1.24-7.43,4.41-7.98,8.48-.29,2.13,0,4.62-1.58,6.16-1.55,1.5-3.62,1.91-5.39,2.85-1.79,.95-2.95,2.06-3.85,3.77-1.69,3.22-1.69,6.83-.91,11.58-2.04-4.26-1.7-9.46-.34-12.74,.61-1.47,1.65-2.69,2.86-3.52,1.53-1.04,3.63-1.53,4.81-3.05,1.34-1.73,1.5-4.7,1.89-7.02,.43-2.53,1.18-4.8,3.2-6.31l-.6-.98c-2.7,1.66-3.3,4.16-3.84,7.25-.36,2.08-.46,5.26-2.05,6.72-1.31,1.2-3.05,1.54-4.49,2.62-1.31,.98-2.12,2.17-2.76,3.58-1.45,3.19-2.19,8.39-.07,13.54,0,.07,.05,.07,.1,.06-.95-.27-1.93-1.07-2.33-2.64-.27-1.05-.07-2.29-.34-3.41-.43-1.79-1.64-2.86-2.15-4.35"/>
                      <path class="cls-30" d="M208.12,73.07c.13-3.92,2.26-6.6,5.3-8.58,2.35-1.53,5.24-2.48,6.74-4.74,1.01-1.52,1-3.42,1.74-5.11,1.92-4.36,6.96-4.15,9.43-9.15,.72,.83,1.44,1.67,2.15,2.49-.35,.6-.73,1.17-1.16,1.69-1.89,2.31-5.19,3.02-7.4,4.91-1.98,1.69-1.91,5.15-3.55,7.2-2.99,3.73-10.76,3.87-11.18,9.37-.02-.07,4.55-2.42,13.34-1.74,6.47,.5,6.23-6.54,8.43-10.07,1.71-2.75,4.14-3.82,6.75-5.37,.82,.93,1.59,1.8,2.27,2.57-2.11,1.17-4.28,1.88-5.87,3.82-1,1.23-1.44,3.08-1.98,4.53-.58,1.55-1.2,3.41-2.13,4.51-5.8,6.85-15.04-.41-20.86,4.34,5.28,2.34,10.26,6.63,10.85,15.4-.08-1.2-7.1-17.01-22.48-14.33-3.28,.57-6.07,1.42-8.55,2.9,4.35-4.43,12.99-6.37,18.16-4.63"/>
                    </g>
                  </g>
                  <g>
                    <path class="cls-2" d="M253.37,108.26c-2-3.48-8.38-3.38-13.31-1.7-2.16,.74-10.59,4.6-20.1,8.04,1.22,3.14-.36,7.49-4.75,7.49-3.01,0-4.7-2.04-5.07-4.34-8.56,2.32-14.13,2.83-20.17,7.39-3.85,2.91-4.72,9.07-5.64,15.23-.76,5.05-.61,10.11-1.08,14.35h14s2.19-12.01,2.87-12l1.23,12.07c6.69,.11,48.59-.53,48.59-.53,.53-7.38,.61-16.84,1-25.07,.38-8.11,5.18-16.16,2.44-20.93Z"/>
                    <g>
                      <path class="cls-33" d="M205.87,119.73c7.35,2.05,17.83-1.42,19.6-9.27,.04-.18,.07-.35,.09-.52,1.02-.43,2.02-.87,3-1.32l15.84,45.73-29.59,.38-8.94-35Z"/>
                      <g>
                        <path class="cls-4" d="M215.28,117.88c2.71,1.23,.76,10.3-.54,10.84-.86,.35-6.41-3.49-8.6-4.9-.92-.59-2.15-1.35-2.44-2.55-.28-1.17,.93-3.56,1.4-4.56,.47-.99,1.8-.64,3.01-.45,.79,.13,5.92,1.17,7.17,1.61Z"/>
                        <path class="cls-4" d="M215.95,117.64c-1.32,2.67,5.96,8.44,7.31,8.02,.88-.27,5.75-9.82,6.55-12.3,.34-1.04,.8-2.41,.26-3.51-.53-1.08-2.98-2.16-3.98-2.63-1-.47-1.8,.65-2.6,1.57-.53,.6-6.86,7.72-7.54,8.85Z"/>
                        <path class="cls-22" d="M227.03,146.76c.63-2.47,1.32-8.89,1.06-9.61-.43-1.2-9.23-13.16-9.3-13.66-.09-.64,.75-1.31,.67-1.88-.08-.65-2.69-3.05-3.19-3.17-.11,0-.2,.01-.28,.04h0s-.02,0-.03,.01c-.01,0-.02,0-.03,.01h0c-.08,.04-.16,.08-.24,.15-.3,.42-.71,3.95-.34,4.49,.32,.48,1.39,.44,1.74,.98,.27,.42,1.44,15.23,1.9,16.42,.28,.71,5,5.12,7.09,6.58,.27,.18,.87-.04,.95-.35Z"/>
                      </g>
                    </g>
                    <g>
                      <g>
                        <path class="cls-17" d="M207.12,178.72c.57,.9,2.15-.07,2.92-.54,.87-.52,1.67-1.02,2.49-1.5,.82-.49,1.66-.96,2.59-1.43,4.51-3.01,10.33-3.5,14.66-6.37-2.13-3.14-2.5-7.36-4.1-9.89-3.24,1.7-12.49,3.69-13.65,4.02-3.53,1.03-6.92,1.81-9.64,3.82-.74,.54-1.27,1.06-1.73,1.95-.13,.24-.17,.63-.36,.93-.24,.37-.79,.62-1.2,.98-1.12,.97-2.39,2.15-2.58,4.39-.04,.43,.48,.68,.79,.55-.19,.25-.31,.77-.13,.98,.63,.68,2.98-.1,4.26-.64,1.22-.51,2.29-1.43,3.45-1.89,1-.4,2.15-.55,3.24-.86,1.08-.3,3.35-1.02,3.36-1.06-.56,.76-1.56,2.03-2.38,3.05-.8,.99-2.5,2.71-1.98,3.51"/>
                        <path class="cls-1" d="M225.83,159c-1.92,2.62,.52,7.05,.18,9.42-1.1,3-6.59,2.96-9.55,5.02-1.52,.88-2.95,1.84-4.34,2.82-1.4,.98-2.76,1.98-4.14,2.84,1.05-.06,1.91-.81,2.73-1.3,.79-.48,1.65-.93,2.45-1.41,.8-.48,1.63-.99,2.51-1.47,4.51-2.34,9.79-3.16,14.12-6.03-2.13-3.14-2.96-6.59-3.94-9.88"/>
                        <path class="cls-1" d="M207.54,166.61c-1.54,.13-4.36,.7-5.87,1.61-.55,.33-1.32,.96-1.56,1.69,.34-.21,.64-.38,.9-.52,1.93-1.05,4.3-2.1,6.53-2.78"/>
                        <path class="cls-1" d="M211.48,172.16c-2.87,.21-5.21,.73-7.46,1.73-1.91,.85-3.59,2-5.78,2.52-.29,.07-.72,.19-.99,.26,.83,.6,2.72-.09,3.88-.55,1.11-.45,2.13-1.11,3.19-1.63,2.2-1.08,6.75-1.83,7.18-2.33"/>
                        <path class="cls-1" d="M207.34,169.5c-1.92,.42-4.78,.54-6.77,1.57-.81,.42-1.8,1.16-2.63,1.91-.33,.3-1.37,1.34-1.43,2.06-.03,.32,.31,.82,.79,.58,1.35-1.68,2.5-3.07,4.32-4.02,1.78-.93,3.8-1.33,5.73-2.1"/>
                      </g>
                      <path class="cls-2" d="M228.61,169.57c-1.21-3.34-1.73-7.24-2.94-10.58,10.65-4.55,19.44-9.27,30.81-13.48-3.76-6.68-8.37-14.74-11.52-23.35-1.95-5.31-4.11-12.94,.38-15.2,2.99-1.51,5.9-.89,7.99,.16,10.12,5.1,16.6,25.63,18.78,39.3,.37,2.29,.89,4.46,.59,6.01-.57,2.95-4.07,5.84-7.38,7.77-3.81,2.23-8.66,4.01-12.5,5.21-8.74,2.73-16.32,3.47-24.21,4.16Z"/>
                    </g>
                  </g>
                </g>
              </g>
            </g>
          </g>
          <g>
            <g>
              <path class="cls-19" d="M424.69,167.4c.01-5.72-4.62-10.37-10.34-10.39l-60.92-.13c-5.72-.01-10.37,4.62-10.38,10.34v3.37s81.64,0,81.64,0v-3.19Z"/>
              <path class="cls-22" d="M343.04,170.59l-.07,44.57c-.01,5.31,3.97,9.69,9.12,10.3,0,0,0,0,0,0,.05,0,.09,0,.14,.02,.02,0,.04,0,.06,0,3.95,.45,6.64-.57,9.15,.97,1.25,.77,1.88,2.85,1.97,4.29,.12,2.02-.48,3.56,.47,4.99,.96,1.44,3.23,2.34,5.44,1.7,2.21-.65,4.97-3.92,6.67-5.74,2.01-2.17,3.98-5.22,6.49-5.76,2.19-.47,4.74-.2,8.14-.31l23.62,.05c5.72,.01,10.37-4.62,10.38-10.34l.07-44.75h-81.64Z"/>
              <g>
                <path class="cls-24" d="M412.06,164.45c0,1.46-1.18,2.64-2.64,2.64s-2.65-1.19-2.65-2.64,1.18-2.65,2.65-2.65,2.64,1.19,2.64,2.65"/>
                <polygon class="cls-24" points="415.87 167.07 418.9 167.07 417.39 164.45 415.87 161.83 414.36 164.45 412.85 167.07 415.87 167.07"/>
              </g>
            </g>
            <g>
              <circle class="cls-29" cx="348.23" cy="159.89" r="40.79" transform="translate(-33.68 191.17) rotate(-29.34)"/>
              <g class="cls-25">
                <g>
                  <g>
                    <path class="cls-15" d="M285.56,79.13c-.99-2.7-2.96-6.41-4.42-9.74-.36-.82-1.72-3.5-.5-4.33,.92-.62,2.8,2.53,3.12,3.18,1.49,3,2.88,5.45,4.53,8.29,.29,.5,.44,1.25,1.14,1.48,.27-1.05-.26-2.09-.58-3.2-.6-2.08-1.3-4.07-1.83-6.43-.22-.98-.65-2.5-.36-3.46,.34-1.13,1.08-.97,1.32-.74,.62,.61,1.53,2.64,1.9,3.61,1.24,3.15,2.06,6.37,3.31,9.65,.56,1.48,1.04,2.23,2.18,3.49,.49,.54,.97,1.08,1.44,1.59,1.18-1.35,1.58-2.87,2.42-5,.7-1.8,1.92-3.74,3.16-3.11,1.18,.6,.05,3.7-.2,5.18-.35,2.04-.07,3.69-.48,5.3-.52,2.04-1.65,4.19-2.55,6.21-2.26,5.07-2.37,9.3-2.55,14.1-.03,.82,.24,2.02-.24,2.65-.43,.57-3.18,.44-3.97,.5-.64,.05-1.23,.07-2,.13-.63,.05-1.68,.28-2.06,0-.41-.31-.23-2.1-.18-3.04,.13-2.39,.39-4.06,.67-6.37,.14-1.13,.36-2.45,.2-3.13-.15-.61-.98-1.45-1.48-2.07-1.04-1.27-2.23-2.66-3.23-4.01-.46-.63-.79-1.46-1.38-2.03-.87-.84-2.29-1.48-3.46-2.27-1.13-.77-2.17-1.64-3.18-2.39-.97-.72-2.3-1.49-3.32-2.33-.81-.67-2.64-2.19-1.39-3.17,.63-.49,2.1,.47,3.05,.97,2.63,1.39,5.56,3.06,8.57,4.39-1.75-3.17-4.49-6.85-6.4-10.52-.55-1.05-2-3.87-.21-3.85,.58,0,1.93,1.38,2.55,2.26,2.16,3.04,4.24,5.3,6.27,7.95,.07,.05,.06,.14,.16,.18-.01,.03-.03,.07-.04,.1Z"/>
                    <path class="cls-10" d="M283.03,85.57c-.1-.4,0-1.32,.17-1.88,1.02-3.28,5.08-6.07,7.57-6.18-2.1,.89-5.5,2.93-7.73,8.06Z"/>
                    <path class="cls-10" d="M296.82,82.51c-2.65,3.33-3.54,6.56-3.71,9.76-1.96-2.65,.74-8.81,3.71-9.76Z"/>
                  </g>
                  <path class="cls-2" d="M284.1,97.48c5.74-.06,11.39-.03,16.51,.53,.54,7.3,1.39,14.59,2.45,21.41,1.05,6.77,2.3,13.42,5.22,18.53,1.38,2.41,3.36,4.54,5.32,6.6,5.75,6.06,11.76,12.04,19.06,16.51,11.81-.28,24.47-.68,35.46,.85,5.33,.74,9.66,2.35,12.35,6.18,1.86,2.64,3.03,6.01,3.83,10.01,.22,1.12,.78,2.87,.64,3.94-.1,.77-1.11,1.93-1.81,2.88-4.57,6.17-11.01,10.79-18.74,13.52-4.63,1.64-9.8,2.66-15.65,2.88-5.81,.22-11.22-1.26-15.87-2.56-.89-1.21-1.06-2.91-1.92-4.05-.47-.63-1.75-1.31-2.66-1.92-6.25-4.17-12.31-8.9-17.78-13.74-9.45-8.34-18.01-18.2-22.36-31.84-4.34-13.59-4.63-31.08-4.15-49.41,0-.15-.02-.3,.11-.32Z"/>
                  <g>
                    <g>
                      <path class="cls-15" d="M363.14,131.87s1.08,.2,1.8,1.26c2.36,3.48-2.93,8.78-5.86,10.13-.08,5.53,.06,17.83,.06,17.83-2.08,5.54-6.75,10.61-12.1,11-1.88,.14-4.12-.72-5.23-2.19-2.27-3.01-1.26-10.48-1-15.1-3.86-2-5.75-4.69-6.66-8.8-.15-.68-.37-2.29-.61-3,0,0-2.28-2.23-3.11-4.33-.37-.96-1.39-5.16,.5-6.62,.64-.5,1.26-.26,1.98,.44,.78-4.43,.01-7.86,1.53-12.46,2.12-6.43,10.78-10.06,17.57-9.11,10.77,1.5,12.72,10.53,11.13,20.95"/>
                      <path class="cls-3" d="M363.56,132s-.86-.34-1.9,.38c-2.04,1.41-1.74,5.35-2.82,5.63-.91,0-.87-5.16-1.19-7.18-.52-3.26-1.53-5.87-.37-10.11-2.91,.08-5.42,3.29-9.37,1.74-3.36-1.31-4.62-6.26-9.25-5.14-5.2,1.25-5.55,9.54-5.43,15.42-.72-.49-1.33-2.02-1.59-3.68-.61-3.86-1.63-9.43-1.03-13.67,.78-5.54,3.31-9.12,7.45-9.55,4.3-.45,6.46,2.06,8.73,2.04,3.3-.03,5.89-2.07,9.05-.26,1.69,.97,2.33,3.42,4.02,4.52,1.77,1.14,3.67,.82,5.1,1.99,1.53,1.26,2.1,3.5,1.92,5.44-.34,3.59-2.71,7.59-3.32,12.46"/>
                      <g>
                        <g>
                          <path class="cls-3" d="M333.41,128.8c.04,.48,1.56,.74,3.4,.58,1.84-.16,3.29-.67,3.25-1.15-.04-.48-1.56-.74-3.4-.58-1.83,.16-3.29,.67-3.25,1.15"/>
                          <path class="cls-3" d="M334.98,133.87c-.03,.82,.44,1.51,1.04,1.52,.6,.02,1.11-.63,1.13-1.46,.03-.82-.44-1.51-1.04-1.52-.6-.02-1.11,.63-1.14,1.45"/>
                        </g>
                        <g>
                          <path class="cls-3" d="M343.57,128.45c-.09,.47,1.3,1.14,3.11,1.49,1.81,.36,3.35,.26,3.44-.21,.09-.47-1.3-1.14-3.11-1.5-1.81-.35-3.35-.26-3.44,.22"/>
                          <path class="cls-3" d="M346.13,134.78c-.03,.82,.44,1.51,1.04,1.52,.6,.02,1.11-.63,1.14-1.46,.03-.82-.44-1.5-1.05-1.52-.6-.02-1.11,.63-1.13,1.46"/>
                        </g>
                        <g>
                          <path class="cls-28" d="M341.13,142.73s-.07,0-.1-.01c-.86-.18-1.46-.55-1.82-1.13-.73-1.16-.32-2.84,.2-4.98,.33-1.36,.7-2.9,.84-4.55,.03-.3,.3-.54,.6-.5,.3,.02,.53,.29,.5,.6-.14,1.74-.53,3.32-.87,4.72-.44,1.81-.81,3.37-.34,4.13,.2,.31,.56,.52,1.12,.64,.3,.06,.49,.36,.42,.66-.06,.27-.29,.44-.56,.43"/>
                          <path class="cls-28" d="M341.49,145.59c-.55-.02-1.16-.12-1.86-.33-.29-.09-.46-.4-.37-.69,.09-.29,.4-.46,.69-.37,3.1,.95,4.17-.84,4.22-.91,.15-.26,.49-.35,.75-.21,.27,.15,.36,.48,.22,.75-.05,.09-1.05,1.84-3.65,1.76"/>
                        </g>
                        <g>
                          <path class="cls-10" d="M354.48,150.02c-.79,4.41-6.12,10.44-13.86,7.94l.18-3.17c6.28,1.17,10.28-1.44,13.67-4.78"/>
                          <path class="cls-10" d="M333.54,143c-1.13-6.23-.3-10.26-.3-10.26-2.65,5.38,.3,10.26,.3,10.26"/>
                        </g>
                      </g>
                    </g>
                    <path class="cls-33" d="M356.24,161.22c-.93,1.12-2.05,2.08-3.53,2.74-4.98,2.25-10.22,1.07-13.96-2.42l-2.58,38.1c3.84,.99,8.08,1.83,12.56,1.66,3.48-.13,6.71-.55,9.73-1.2l.91-38.81c-1.08-.03-2.12-.05-3.14-.07Z"/>
                    <g>
                      <path class="cls-4" d="M346.49,163.97c2.03,1.97-2.62,9.46-3.97,9.52-.88,.04-4.61-5.18-6.12-7.14-.63-.82-1.49-1.9-1.36-3.06,.13-1.14,1.97-2.88,2.72-3.62,.74-.74,1.82,0,2.83,.57,.66,.37,4.92,2.94,5.89,3.74Z"/>
                      <path class="cls-4" d="M347.17,163.97c-2.03,1.97,2.62,9.46,3.97,9.52,.88,.04,8.3-6.94,9.81-8.89,.63-.82,1.49-1.9,1.36-3.06-.13-1.14-1.97-2.88-2.72-3.63-.74-.74-1.82,0-2.83,.57-.66,.37-8.61,4.7-9.58,5.49Z"/>
                      <path class="cls-22" d="M347.74,193.56c1.36-2,4.03-7.52,4.04-8.25,0-1.21-4.03-14.73-3.93-15.2,.13-.6,1.09-.93,1.2-1.46,.14-.61-1.43-3.59-1.84-3.86-.09-.04-.18-.05-.26-.05h0s-.02,0-.03,0c-.01,0-.02,0-.03,0h0c-.08,0-.17,.02-.26,.06-.4,.28-1.9,3.3-1.75,3.91,.13,.53,1.1,.84,1.24,1.43,.11,.46-3.6,14.08-3.57,15.29,.02,.73,2.83,6.19,4.23,8.16,.18,.25,.79,.24,.96-.01Z"/>
                    </g>
                  </g>
                </g>
              </g>
            </g>
          </g>
          <g>
            <g>
              <path class="cls-27" d="M264.74,331.91h107.83c3.89,0,7.05,3.16,7.05,7.05v10.93c0,3.89-3.16,7.05-7.05,7.05h-107.83c-3.89,0-7.05-3.16-7.05-7.05v-10.93c0-3.89,3.16-7.06,7.06-7.06Z"/>
              <g>
                <g>
                  <path class="cls-29" d="M367.43,345.06h-98.73c-.61,0-1.11-.5-1.11-1.11s.5-1.11,1.11-1.11h98.73c.61,0,1.11,.5,1.11,1.11s-.5,1.11-1.11,1.11Z"/>
                  <path class="cls-19" d="M367.43,345.06h-68.33c-.61,0-1.11-.5-1.11-1.11s.5-1.11,1.11-1.11h68.33c.61,0,1.11,.5,1.11,1.11s-.5,1.11-1.11,1.11Z"/>
                </g>
                <path class="cls-22" d="M307.08,344.39c0,2.94-2.38,5.32-5.32,5.32s-5.32-2.38-5.32-5.32,2.38-5.32,5.32-5.32,5.32,2.38,5.32,5.32Z"/>
              </g>
            </g>
            <g>
              <circle class="cls-22" cx="359.13" cy="308.01" r="40.48" transform="translate(39.3 656.67) rotate(-88.09)"/>
              <g class="cls-23">
                <g>
                  <g>
                    <g>
                      <path class="cls-6" d="M276.02,217.45c-1.9-2.15-5.1-4.88-7.67-7.46-.63-.63-2.88-2.63-2.04-3.84,.63-.92,3.53,1.33,4.07,1.82,2.48,2.25,4.67,4.02,7.24,6.07,.45,.36,.87,1.01,1.6,.96-.13-1.08-1.01-1.86-1.7-2.77-1.31-1.71-2.69-3.31-4.05-5.33-.56-.84-1.52-2.09-1.6-3.09-.1-1.17,.65-1.3,.96-1.17,.8,.34,2.39,1.91,3.09,2.66,2.31,2.48,4.24,5.18,6.6,7.77,1.06,1.17,1.79,1.7,3.3,2.45,.65,.32,1.3,.65,1.92,.96,.6-1.68,.43-3.25,.43-5.54,0-1.93,.42-4.18,1.81-4.05,1.32,.13,1.4,3.43,1.7,4.9,.42,2.03,1.29,3.46,1.49,5.11,.26,2.09,0,4.51-.11,6.71-.26,5.55,1.18,9.52,2.77,14.06,.27,.77,.95,1.79,.75,2.56-.19,.69-2.8,1.57-3.51,1.92-.58,.28-1.12,.51-1.81,.85-.57,.28-1.46,.87-1.92,.75-.5-.14-.98-1.87-1.28-2.77-.75-2.27-1.12-3.92-1.7-6.18-.29-1.1-.55-2.41-.96-2.98-.37-.52-1.44-1-2.13-1.38-1.43-.8-3.05-1.66-4.47-2.56-.66-.41-1.27-1.07-2.02-1.38-1.12-.47-2.67-.54-4.05-.85-1.33-.3-2.62-.73-3.83-1.06-1.17-.32-2.69-.55-3.94-.96-1-.33-3.25-1.07-2.45-2.45,.4-.69,2.13-.33,3.19-.21,2.95,.33,6.29,.82,9.58,.96-2.79-2.32-6.68-4.75-9.8-7.45-.9-.78-3.27-2.87-1.6-3.51,.54-.21,2.3,.58,3.19,1.17,3.12,2.04,5.88,3.38,8.73,5.11,.09,.02,.11,.11,.21,.11v.11Z"/>
                      <path class="cls-8" d="M276.02,224.37c-.25-.34-.49-1.23-.53-1.81-.25-3.43,2.52-7.51,4.79-8.52-1.63,1.59-4.05,4.73-4.26,10.33Z"/>
                      <path class="cls-8" d="M287.73,216.49c-1.26,4.07-.9,7.4,.11,10.44-2.79-1.76-2.52-8.48-.11-10.44Z"/>
                    </g>
                    <g>
                      <path class="cls-6" d="M404.43,206.66c1.36-2.53,3.84-5.92,5.75-9.02,.47-.76,2.19-3.22,1.11-4.21-.82-.74-3.13,2.11-3.54,2.71-1.89,2.76-3.62,4.99-5.65,7.57-.36,.45-.62,1.18-1.33,1.3-.12-1.08,.55-2.04,1.02-3.09,.88-1.97,1.86-3.84,2.71-6.11,.36-.94,1-2.38,.84-3.37-.18-1.16-.94-1.12-1.2-.92-.7,.51-1.88,2.4-2.39,3.3-1.67,2.95-2.94,6.01-4.64,9.08-.77,1.39-1.35,2.07-2.65,3.14-.56,.46-1.12,.93-1.65,1.37-.97-1.5-1.17-3.06-1.69-5.29-.44-1.88-1.37-3.97-2.69-3.52-1.25,.43-.57,3.66-.53,5.16,.06,2.07-.46,3.66-.27,5.32,.23,2.09,1.04,4.38,1.65,6.51,1.53,5.34,1.04,9.54,.54,14.32-.08,.81-.52,1.96-.14,2.66,.34,.63,3.09,.89,3.86,1.06,.63,.14,1.21,.24,1.96,.41,.62,.14,1.62,.52,2.04,.28,.45-.25,.52-2.05,.61-2.99,.21-2.38,.19-4.07,.24-6.4,.02-1.14-.02-2.47,.25-3.12,.24-.59,1.17-1.3,1.75-1.84,1.21-1.11,2.58-2.32,3.77-3.52,.55-.55,.99-1.33,1.65-1.81,.99-.71,2.47-1.14,3.74-1.76,1.23-.6,2.38-1.32,3.49-1.92,1.06-.58,2.49-1.15,3.61-1.84,.9-.55,2.92-1.79,1.82-2.95-.55-.58-2.15,.17-3.16,.53-2.8,1-5.94,2.25-9.11,3.14,2.18-2.9,5.41-6.15,7.82-9.51,.69-.96,2.53-3.54,.75-3.79-.57-.08-2.1,1.1-2.84,1.88-2.56,2.7-4.95,4.64-7.32,6.98-.08,.04-.08,.13-.18,.15,0,.03,.02,.07,.02,.1Z"/>
                      <path class="cls-8" d="M406.02,213.4c.16-.39,.2-1.31,.1-1.88-.55-3.39-4.18-6.73-6.62-7.19,1.95,1.18,5.03,3.67,6.52,9.07Z"/>
                      <path class="cls-8" d="M392.81,208.43c2.16,3.67,2.58,7,2.3,10.18,2.31-2.35,.5-8.83-2.3-10.18Z"/>
                    </g>
                    <path class="cls-2" d="M388.51,222.44c3.97,.68,7.96,1.34,12.03,1.92-.3,9.31-.21,18.73-.64,28.11-.42,9.32-.14,18.84-.32,28.01-.09,4.76-.08,9.53-.11,14.27-.07,13.86-.89,28.09-.21,42.38-12.13,6.37-27.17,11.11-44.09,12.99-5.83,.65-11.98,.97-18.32,.32-4.95-8.54-9.78-17.16-14.48-25.98-2.36-4.42-4.48-8.98-6.71-13.53-2.21-4.49-4.56-8.93-6.82-13.42-4.55-9.06-8.68-18.33-12.67-27.79-3.96-9.39-8.25-18.73-12.03-28.33,4.35-1.75,8.58-3.63,12.99-5.32,.59,.49,.84,1.25,1.17,1.92,2.32,4.61,4.98,9.06,7.56,13.52,2.92,5.06,5.89,10.14,9.05,15.02,2.97,4.59,6.42,9.83,9.9,14.27,2.5,3.18,5.27,6.71,8.09,10.01,.96,1.12,1.83,2.56,2.77,3.19,2.08,1.4,5.72,1.6,9.58,1.6,8.1,0,14.01,0,21.94,.21,3.27,.09,8.93,.92,10.97-.64,1.64-1.25,2.02-4.94,2.34-7.99,.98-9.41,1.81-19.15,3.09-27.9,1.79-12.31,2.89-24.65,4.79-36.53,0-.15-.02-.3,.11-.32Z"/>
                  </g>
                  <g>
                    <g>
                      <path class="cls-6" d="M341.13,286.43l4.7,12.69c7.25,.79,15.76-1.04,20.69-3.23-1.59-4.39-3.54-8-4.33-13.22-.24-1.57-.71-3.95-.05-5.42,.46-1.04,2.1-1.38,2.84-2.24,1.46-1.7,2.83-5.64,.3-6.89,.85-2.01,1.04-5.78,.5-8.36-1.62-7.74-5.98-13.09-15.17-12.62-4.49,.23-11.38,2.05-14.77,5.27-5.39,5.12-10.87,19.74-4.97,28.79,2.34,3.59,3.85,5.88,10.25,5.22"/>
                      <g>
                        <path class="cls-8" d="M342.96,291.38c8.85-2.88,10.48-9.54,10.48-9.54-6.07,3.98-12.32,4.59-12.32,4.59l1.83,4.95Z"/>
                        <g>
                          <path class="cls-3" d="M330.69,261.35c0,.45,1.39,.84,3.12,.86,1.72,.03,3.13-.32,3.14-.77,0-.45-1.39-.83-3.12-.86-1.73-.03-3.13,.32-3.14,.77"/>
                          <path class="cls-3" d="M331.69,266.23c-.1,.77,.27,1.45,.83,1.52,.56,.07,1.09-.49,1.2-1.26,.1-.76-.27-1.44-.83-1.52-.56-.07-1.09,.49-1.2,1.25"/>
                        </g>
                        <g>
                          <path class="cls-3" d="M339.8,261.85c-.14,.45,1.17,1.25,2.91,1.78,1.74,.53,3.27,.59,3.41,.13,.14-.46-1.17-1.25-2.92-1.78-1.75-.53-3.27-.58-3.41-.13"/>
                          <path class="cls-3" d="M341.14,267.81c-.11,.81,.28,1.53,.87,1.61,.59,.08,1.16-.52,1.26-1.32,.11-.81-.28-1.53-.88-1.6-.59-.08-1.16,.51-1.26,1.32"/>
                        </g>
                        <g>
                          <path class="cls-26" d="M336.58,275.08s-.06-.01-.09-.02c-.79-.25-1.31-.65-1.59-1.23-.57-1.15-.03-2.68,.65-4.63,.43-1.24,.93-2.64,1.21-4.17,.05-.28,.33-.47,.6-.41,.28,.05,.47,.32,.42,.6-.3,1.61-.81,3.05-1.25,4.32-.58,1.65-1.08,3.07-.71,3.82,.16,.31,.48,.54,.98,.7,.27,.09,.42,.38,.34,.65-.08,.24-.32,.39-.56,.35"/>
                          <path class="cls-26" d="M336.64,277.78c-.51-.07-1.07-.22-1.7-.48-.26-.11-.39-.41-.28-.68,.11-.26,.42-.39,.68-.28,2.8,1.18,3.97-.39,4.02-.46,.17-.23,.49-.29,.72-.12,.24,.16,.29,.48,.13,.72-.05,.08-1.15,1.62-3.57,1.3"/>
                        </g>
                      </g>
                      <path class="cls-21" d="M351.39,286.75c-.11-.93-1.12-2.16-.8-2.9,.33,1.54,1.23,2.54,1.19,4.44l8.22,.17c.27-.47,.42-1.08,.48-1.74,.26,.53,.48,1.07,.49,1.76l7.16,.15c.79-2.34-1.62-3.78-1.91-5.31,.77,1.49,2.67,1.91,2.59,4.22l3.57,.15c1.3-3.84-3.91-4.96-3.96-7.22-.02-.92,1.07-2.09,1.77-2.64,.81-.64,1.79-1.01,2.6-1.66,1.65-1.31,3.12-3.27,3.23-6.24,.06-1.62-.41-3.95-1.18-5.16-.99-1.55-2.84-2.88-3.87-4.36-1.16-1.67-1.13-4.35-1.47-6.66-.67-4.56-3.92-7.88-8.17-8.4-2.53-.31-4.15,.35-6.11,.84-1.09-2.33-2.88-3.74-5.58-4.07-4.8-.59-6.47,2.34-9.48,3.44-2.1,.77-5.84,.17-8.05,.65-2.07,.44-4.05,.99-5.71,2.24-2.17,1.63-3.5,4.18-4,7.19-.72,4.36,1.83,8.65-1.53,12.63-.85,1.01-2.36,1.64-3.37,2.6-1.24,1.19-2.43,3.12-2.57,5.4-.13,2.06,.6,3.98,1.2,5.65l2.83,.02c.22-.44-.14-.95-.38-1.32-.47-.74-.83-1.66-.48-2.79-.34,1.82,1.38,2.44,1.52,3.99,.1,1.18-.78,2.34-.82,3.62-.03,.94,.16,1.55,.54,2.37l1.97,.04c.39-.67,1.57-.89,1.71-1.84,.13-.84-.08-1.74,.2-2.62-.04,1.02,.58,1.82,.44,2.67-.12,.79-.79,1.17-1.05,1.81l4.25,.09c.33-.41,.49-1.02,.57-1.6,.09,.87,.08,1.28-.02,1.61l14.4,.31c-.1-.3-.52-1.32-.69-1.86-4.02-.23-7-1.71-9.01-4.03-1.77-2.05-2.89-4.98-2.71-8.5,.11-2.26,1.21-4.5,1.43-7.03,.18-2.02-.08-3.96,.44-5.98,6.95-.15,10.9-3.42,13.95-7.63,2.3,1.24,4.09,2.52,4.23,5.58,.08,1.82-.52,3.76-.4,5.73,.09,1.4,.53,2.56,1.11,3.44,.21,.33,.76,1.2,1.16,.88,.53-.43-.49-1.47-.81-2.26-1.04-2.6,.55-6.37,.08-9.2,1.06,2.11-.3,4.96,.28,7.38,.32,1.35,1.43,2.34,2.28,3.47,.94,1.25,1.3,2.55,1.73,3.99,1.08-1.47,2.46-3.17,4.65-2.79,1.01,.17,1.65,1.09,1.67,2.06,.04,2.18-2.71,5.01-5.33,4.27-3.71,1.67-9.24,3.23-8.62,8.59,.04,.37-.13,.88,.3,1.07,.98,0,.57-1.54,.69-2.34,.22-1.56,1.35-2.72,2.2-3.16-.96,1.11-1.32,2.97-.95,4.69,.17,.78,.69,1.46,.81,2.26,.07,.46-.17,.96-.01,1.32l.94,.02c.29-.37,.21-1.05,.15-1.53m-19.7-27.99c.41,0,.86-.04,1.24-.08,3.62-.45,7.07-1.91,9.59-3.76-2.18,2.48-6.11,4.82-11.01,4.6l.17-.75Z"/>
                    </g>
                    <g>
                      <path class="cls-33" d="M363.73,295.73c.03,1.41-.45,2.81-1.55,3.77-4.03,3.52-9.87,2.76-14.22,.17-.9-.53-1.59-1.31-2.03-2.19l-3.6,53.3c4.42,.1,8.72-.19,12.86-.65,3.5-.39,6.91-.91,10.23-1.53l1.23-52.8c-1-.03-1.97-.05-2.92-.07Z"/>
                      <path class="cls-4" d="M352.58,298.47c2.03,1.97-2.62,9.46-3.97,9.52-.88,.04-4.61-5.18-6.12-7.14-.63-.82-1.49-1.9-1.36-3.06,.13-1.14,1.97-2.88,2.72-3.63,.74-.74,1.82,0,2.83,.57,.66,.37,4.92,2.94,5.89,3.74Z"/>
                      <path class="cls-4" d="M353.26,298.47c-2.03,1.97,2.63,9.46,3.97,9.52,.88,.04,8.3-6.93,9.81-8.89,.63-.82,1.49-1.9,1.36-3.06-.13-1.14-1.97-2.88-2.72-3.63-.74-.74-1.82,0-2.83,.57-.66,.37-8.61,4.7-9.58,5.49Z"/>
                      <path class="cls-22" d="M353.83,328.06c1.36-2,4.03-7.52,4.04-8.25,0-1.21-4.03-14.73-3.93-15.2,.13-.6,1.09-.93,1.2-1.46,.14-.6-1.43-3.59-1.84-3.86-.09-.04-.18-.05-.26-.05h0s-.02,0-.03,0c-.01,0-.02,0-.03,0h0c-.08,0-.17,.02-.26,.06-.4,.28-1.9,3.3-1.75,3.9,.13,.53,1.1,.84,1.24,1.43,.11,.46-3.6,14.08-3.57,15.29,.02,.73,2.83,6.19,4.23,8.16,.18,.25,.79,.24,.96-.01Z"/>
                    </g>
                  </g>
                </g>
              </g>
            </g>
            <path class="cls-29" d="M412.46,320.61c0-8.9-7.22-16.12-16.12-16.12s-16.12,7.22-16.12,16.12c0,1.95,.34,3.81,.98,5.54,.4,1.09,.92,2.13,1.53,3.1,4.55,7.99,13.61,16.65,13.61,16.65,0,0,10.89-9.72,14.79-18.86,.03-.07,.06-.14,.09-.21,0,0,0-.01,0-.02h0c.8-1.91,1.24-4.01,1.24-6.2Zm-16.05,7.84c-4.33,0-7.84-3.51-7.84-7.84s3.51-7.84,7.84-7.84,7.84,3.51,7.84,7.84-3.51,7.84-7.84,7.84Z"/>
          </g>
          <g>
            <g>
              <g>
                <path class="cls-12" d="M13.35,261.79c-1.37-4.6,1.41-9.5,6.22-10.93l84.15-25.11c4.81-1.43,9.82,1.13,11.19,5.74l2.09,7.01-101.56,30.31-2.09-7.01Z"/>
                <g>
                  <path class="cls-19" d="M28.73,256.21c.55,1.84,2.48,2.88,4.32,2.33,1.84-.55,2.88-2.49,2.34-4.32-.55-1.84-2.49-2.89-4.32-2.34-1.84,.55-2.89,2.49-2.34,4.33Z"/>
                  <polygon class="cls-19" points="24.91 260.95 21.1 262.08 22.02 258.21 22.94 254.35 25.83 257.08 28.72 259.81 24.91 260.95"/>
                </g>
              </g>
              <path class="cls-4" d="M117,238.49l20.93,70.12c1.37,4.6-1.41,9.5-6.22,10.93l-84.15,25.11c-4.81,1.43-9.82-1.13-11.19-5.74l-20.93-70.12,101.56-30.31Z"/>
            </g>
            <g>
              <path class="cls-5" d="M120.78,234.09c0,22.53-18.26,40.79-40.79,40.79s-40.79-18.26-40.79-40.79,18.26-40.79,40.79-40.79,40.79,18.26,40.79,40.79Z"/>
              <g class="cls-34">
                <g>
                  <g>
                    <path class="cls-7" d="M63.35,136.08c.72-2.78,1.19-6.96,1.89-10.53,.17-.88,.57-3.86,2.04-3.85,1.11,0,.87,3.68,.77,4.39-.48,3.31-.72,6.12-.98,9.4-.04,.57-.35,1.28,.1,1.86,.82-.71,.98-1.87,1.34-2.96,.69-2.05,1.24-4.08,2.15-6.33,.38-.94,.88-2.43,1.67-3.05,.92-.74,1.44-.19,1.51,.14,.17,.85-.24,3.04-.48,4.05-.77,3.3-1.91,6.41-2.75,9.82-.38,1.54-.41,2.43-.18,4.11,.1,.72,.19,1.44,.28,2.13,1.73-.44,2.93-1.46,4.83-2.75,1.6-1.09,3.7-1.99,4.37-.76,.63,1.17-2.06,3.08-3.11,4.15-1.45,1.48-2.15,3-3.4,4.1-1.59,1.38-3.74,2.52-5.62,3.67-4.74,2.89-7.23,6.31-10.1,10.16-.49,.66-.95,1.79-1.7,2.05-.68,.23-2.87-1.44-3.56-1.84-.56-.33-1.05-.64-1.72-1.02-.55-.31-1.54-.72-1.69-1.17-.16-.49,1-1.86,1.58-2.61,1.46-1.89,2.62-3.12,4.17-4.87,.75-.85,1.69-1.81,1.93-2.46,.22-.59,.02-1.75-.04-2.54-.14-1.64-.33-3.45-.39-5.14-.03-.78,.18-1.65,.01-2.45-.24-1.19-1.05-2.51-1.56-3.83-.5-1.27-.86-2.58-1.26-3.77-.39-1.15-1.05-2.53-1.41-3.8-.29-1.01-.93-3.3,.66-3.4,.79-.05,1.47,1.58,1.96,2.53,1.38,2.63,2.84,5.68,4.57,8.48,.36-3.61,.2-8.19,.69-12.29,.14-1.18,.54-4.32,2.02-3.29,.47,.33,.8,2.23,.82,3.3,.05,3.72,.49,6.77,.65,10.1,.03,.08-.03,.15,.03,.24-.03,.02-.06,.04-.09,.06Z"/>
                    <path class="cls-16" d="M57.61,139.95c.14-.39,.74-1.09,1.2-1.45,2.7-2.12,7.63-2.12,9.74-.8-2.23-.46-6.19-.71-10.94,2.25Z"/>
                    <path class="cls-16" d="M70.7,145.25c-4.08,1.24-6.64,3.4-8.59,5.93-.11-3.29,5.61-6.83,8.59-5.93Z"/>
                  </g>
                  <g>
                    <path class="cls-2" d="M52.68,152.6c1.87,1.37,3.58,2.93,5.43,4.37,1.8,1.4,3.83,2.61,5.43,4.26-5.15,8.71-10.15,17.58-15.02,27.26-.69,1.37-1.62,2.98-2.34,4.69-.71,1.68-1.7,3.85-1.6,5.75,.14,2.68,2.3,5.56,3.73,7.77,4.09,6.31,8.23,12.32,12.89,18.53,.46,.62,.87,1.27,1.28,1.49,1.09,.6,3.27,.7,5.11,.96,8.82,1.25,19.2,.87,28.97,1.06,8.02,.16,15.46,.35,20.34,3.62,2.37,1.59,4.16,3.96,5.54,6.5,1.33,2.43,2.51,5.26,2.98,9.05,.37,2.96,.62,6.07,.96,9.48,.05,.5,.25,1.11,.21,1.28-.14,.57-1.6,1.31-2.56,1.92-6.14,3.87-13.68,7.17-20.98,9.58-6.64,2.2-40.22,9.84-42.35,9.14-.66-.21-45.93-64.91-41.04-80.28,1.06-3.33,2.39-6.39,4.05-9.16,1.63-2.71,3.55-5.27,5.32-7.77,7.44-10.5,15.47-20.51,23.64-29.5Z"/>
                    <g>
                      <path class="cls-7" d="M71.94,205.78c-1.03,1.12-1.84,1.59-1.91,3.18-.13,2.89,2.68,4.36,5.09,5.09-.49,4.64-1.49,18.24-1.49,18.24,.55,3.33,5.48,6.27,9.54,6.79,5.69,.72,10.4-1.65,12.73-5.09-.18-2.56,.27-5.16,.21-8.06,2.3,.09,4.19-.4,5.73-1.27,3.54-2.02,5.42-7.34,5.94-11.67,.67-5.56-.64-13.06-2.54-17.82-.68-1.7-1.34-3.6-2.12-4.88-2.99-4.9-8.27-7.59-14-7.63-11.89-.09-21.16,9.64-17.18,23.12"/>
                      <path class="cls-12" d="M81.06,214.48c2.55-.43-.9-6.45-1.7-8.91,1.37-1.32,3.57-2.45,4.03-4.88,.24-1.25-.04-2.64-.21-4.24,2.52-.24,4.39-1.12,5.73-2.55,5.99,.19,15.92-2.2,12.94-5.94,3.55-1.18,5.2-6.78-1.06-6.15,.61-1.13,2.14-4.12,.85-6.15-.91-1.42-4.04-1.85-6.36-1.7-6.28,.41-14.99,4.91-19.09,9.12-1.25,1.29-2.03,2.7-2.76,4.46-3.67,1.67-6.79,5.55-5.3,11.67,.79,3.23,2.92,6.01,5.3,8.9,2.36,2.87,5.04,6.81,7.64,6.36"/>
                      <g>
                        <path class="cls-16" d="M82.33,218.51c.77,5.53,5.45,11.65,13.64,11.38l.15-3.96c-6.25-.61-11.03-3.37-13.79-7.43"/>
                        <g>
                          <path class="cls-12" d="M104.21,195.03c.08,.52-1.49,1.18-3.49,1.47-2,.29-3.69,.11-3.77-.41-.07-.52,1.49-1.18,3.49-1.48,2-.29,3.68-.1,3.76,.42"/>
                          <path class="cls-12" d="M104.14,200.84c.24,.88-.1,1.73-.73,1.9-.64,.17-1.35-.4-1.58-1.27-.24-.87,.09-1.72,.73-1.89,.64-.17,1.35,.4,1.58,1.26"/>
                        </g>
                        <g>
                          <path class="cls-12" d="M93.99,197.23c.24,.53-1.21,1.7-3.24,2.61-2.03,.92-3.87,1.23-4.11,.7-.24-.53,1.22-1.7,3.25-2.62,2.03-.91,3.86-1.22,4.1-.7"/>
                          <path class="cls-12" d="M93.93,204.16c.25,.94-.1,1.85-.78,2.04-.69,.18-1.45-.43-1.7-1.37-.25-.94,.1-1.85,.79-2.04,.68-.18,1.44,.43,1.69,1.37"/>
                        </g>
                        <g>
                          <path class="cls-35" d="M100.18,211.86s.07-.02,.1-.04c.88-.41,1.42-.96,1.66-1.66,.49-1.42-.37-3.12-1.46-5.27-.69-1.37-1.48-2.93-2.04-4.66-.11-.32-.45-.5-.76-.39-.32,.1-.5,.45-.39,.76,.59,1.82,1.4,3.41,2.11,4.83,.92,1.82,1.72,3.4,1.4,4.33-.13,.38-.47,.7-1.03,.96-.3,.14-.43,.51-.29,.81,.12,.27,.43,.4,.7,.33"/>
                          <path class="cls-35" d="M100.52,215.01c.58-.16,1.22-.42,1.91-.82,.29-.17,.39-.54,.22-.83-.17-.29-.54-.39-.83-.22-3.08,1.79-4.67,.15-4.73,.08-.23-.24-.61-.26-.86-.04-.25,.23-.26,.6-.04,.85,.07,.08,1.59,1.71,4.34,.97"/>
                        </g>
                      </g>
                    </g>
                    <g>
                      <path class="cls-33" d="M98.09,231.08c-6.61,4.68-18.32,4.98-22.9-2.23-.1-.16-.19-.32-.28-.48-1.17-.07-2.33-.15-3.47-.25l.99,49.36c10.14-2.07,23.94-5.33,29.39-6.93l-3.74-39.47Z"/>
                      <g>
                        <path class="cls-4" d="M88.04,232.61c-2.27,2.2,2.93,10.56,4.43,10.63,.98,.04,5.15-5.79,6.83-7.97,.71-.92,1.66-2.12,1.52-3.42-.14-1.27-2.2-3.22-3.04-4.05-.83-.82-2.03,0-3.16,.63-.74,.41-5.5,3.29-6.58,4.18Z"/>
                        <path class="cls-4" d="M87.28,232.61c2.27,2.2-2.93,10.56-4.43,10.63-.98,.04-9.27-7.74-10.95-9.93-.71-.92-1.66-2.12-1.52-3.42,.14-1.27,2.2-3.22,3.04-4.05,.83-.82,2.03,0,3.16,.63,.74,.41,9.62,5.25,10.7,6.13Z"/>
                        <path class="cls-22" d="M86.65,265.66c-1.51-2.24-4.5-8.4-4.51-9.22,0-1.35,4.5-16.46,4.39-16.98-.14-.67-1.21-1.04-1.35-1.63-.15-.68,1.6-4.01,2.05-4.31,.1-.04,.2-.06,.3-.06h0s.02,0,.04,0c.01,0,.02,0,.04,0h0c.09,0,.19,.02,.29,.07,.45,.32,2.12,3.69,1.95,4.36-.15,.6-1.23,.93-1.38,1.6-.12,.52,4.02,15.72,3.99,17.07-.02,.81-3.16,6.91-4.73,9.11-.2,.28-.88,.27-1.08-.01Z"/>
                      </g>
                    </g>
                  </g>
                </g>
              </g>
              <polygon class="cls-27" points="28.46 235.98 0 221.95 26.37 204.32 28.46 235.98"/>
            </g>
            <g>
              <path class="cls-29" d="M42.79,321.3c0,5.93-4.8,10.73-10.73,10.73s-10.73-4.8-10.73-10.73,4.8-10.73,10.73-10.73,10.73,4.8,10.73,10.73Z"/>
              <rect class="cls-27" x="99.16" y="312.11" width="29.06" height="29.06" transform="translate(-218.88 231.7) rotate(-54.88)"/>
              <g>
                <path class="cls-22" d="M48.82,272.46c2.75-2.33,6.26-3.66,9.87-3.73l30.95-.65c4.22-.09,8.22,1.47,11.27,4.39,3.05,2.92,4.78,6.86,4.86,11.08l.11,5.06c.1,4.79-1.94,9.31-5.6,12.4-2.75,2.33-6.26,3.66-9.87,3.73l-10.91,.23c-1.46,.03-2.79,.58-4.08,1.66-.97,.82-1.78,1.84-2.49,2.74-.33,.42-.65,.82-.96,1.17-.18,.2-.36,.42-.57,.65-.88,1.02-1.97,2.28-3.03,3.18-.74,.62-1.21,.86-1.48,.94-1.31,.42-2.67-.1-3.18-.82-.33-.47-.33-1.02-.28-2.12,.01-.43,.04-.93,.02-1.46,0-.16,0-.33,0-.52,0-1.31,.03-4.02-2.84-4.85-.8-.23-1.77-.34-2.89-.47-1.56-.18-3.33-.39-4.77-.95-5.71-2.26-9.49-7.84-9.62-14.21l-.11-5.06c-.1-4.78,1.94-9.31,5.6-12.4"/>
                <g>
                  <path class="cls-19" d="M58.23,285.68c.49-.42,1.1-.64,1.74-.66,.74-.02,1.45,.26,1.99,.77,.54,.51,.85,1.21,.86,1.95,.02,.85-.34,1.65-.99,2.2-.49,.41-1.1,.64-1.74,.65-1.54,.04-2.82-1.19-2.85-2.73-.02-.84,.34-1.64,.99-2.2"/>
                  <path class="cls-19" d="M72.25,285.37c.49-.42,1.09-.64,1.74-.66,1.54-.03,2.82,1.19,2.85,2.73,.02,.85-.34,1.65-.99,2.2-.49,.42-1.1,.64-1.74,.65-.75,.02-1.45-.26-1.99-.77-.54-.51-.84-1.21-.86-1.96-.02-.85,.34-1.65,.99-2.19"/>
                  <path class="cls-19" d="M86.27,285.07c.49-.42,1.09-.64,1.74-.66,.74-.02,1.45,.26,1.99,.77,.54,.51,.84,1.21,.86,1.95,.02,.85-.34,1.65-.98,2.2-.49,.42-1.1,.64-1.74,.66-.75,.02-1.46-.26-1.99-.78-.54-.51-.85-1.21-.86-1.95-.02-.85,.34-1.65,.99-2.19"/>
                </g>
              </g>
            </g>
          </g>
        </g>
      </g>
    </g>
    <g>
      <path class="cls-19" d="M184.75,247.35l-27.5-10.15v-7.2l27.5-10.15v7.25l-20.3,6.26v.48l20.3,6.26v7.25Z"/>
      <path class="cls-19" d="M197.63,257.75l20.81-48.34h7.39l-20.81,48.34h-7.39Z"/>
      <path class="cls-19" d="M238.44,247.35v-7.25l20.14-6.26v-.48l-20.14-6.26v-7.25l27.5,10.15v7.2l-27.5,10.15Z"/>
    </g>
  </g>
</svg>